<?xml version="1.0" encoding="utf-8"?>
<!-- Generator: Adobe Illustrator 23.1.1, SVG Export Plug-In . SVG Version: 6.00 Build 0)  -->
<svg version="1.1" id="Layer_1" xmlns="http://www.w3.org/2000/svg" xmlns:xlink="http://www.w3.org/1999/xlink" x="0px" y="0px"
	 viewBox="0 0 700 900" style="enable-background:new 0 0 700 900;" xml:space="preserve">
<style type="text/css">
	.st0{fill:#2ED2BE;}
	.st1{font-family:'ArialMT';}
	.st2{font-size:12px;}
	.st3{fill:#DC0300;}
	.st4{fill:#2041FF;}
	.st5{fill:#FFFFFF;}
	.st6{fill:#FB8703;}
	.st7{fill:none;stroke:#000000;}
	.st8{font-family:'Helvetica';}
	.st9{font-size:10px;}
</style>
<g transform="translate(120,20)">
	<g>
		<rect y="23.4" class="st0" width="528" height="54.5"/>
		<text transform="matrix(1 0 0 1 504.6523 54.8195)" class="st1 st2">33</text>
	</g>
	<g>
		<rect y="101.2" class="st0" width="512" height="54.5"/>
		<text transform="matrix(1 0 0 1 488.6523 132.6956)" class="st1 st2">32</text>
	</g>
	<g>
		<rect y="179.1" class="st0" width="496" height="54.5"/>
		<text transform="matrix(1 0 0 1 472.6523 210.5717)" class="st1 st2">31</text>
	</g>
	<g>
		<rect y="257" class="st3" width="464" height="54.5"/>
		<text transform="matrix(1 0 0 1 440.6523 288.4478)" class="st1 st2">29</text>
	</g>
	<g>
		<rect y="334.9" class="st3" width="432" height="54.5"/>
		<text transform="matrix(1 0 0 1 408.6523 366.3239)" class="st1 st2">27</text>
	</g>
	<g>
		<rect y="412.7" class="st4" width="432" height="54.5"/>
		<text transform="matrix(1 0 0 1 408.6523 444.2)" class="st5 st1 st2">27</text>
	</g>
	<g>
		<rect y="490.6" class="st0" width="416" height="54.5"/>
		<text transform="matrix(1 0 0 1 392.6523 522.0761)" class="st1 st2">26</text>
	</g>
	<g>
		<rect y="568.5" class="st6" width="400" height="54.5"/>
		<text transform="matrix(1 0 0 1 376.6523 599.9522)" class="st1 st2">25</text>
	</g>
	<g>
		<rect y="646.4" class="st0" width="400" height="54.5"/>
		<text transform="matrix(1 0 0 1 376.6523 677.8283)" class="st1 st2">25</text>
	</g>
	<g>
		<rect y="724.2" class="st3" width="384" height="54.5"/>
		<text transform="matrix(1 0 0 1 360.6523 755.7044)" class="st1 st2">24</text>
	</g>
	<g>
		<rect y="802.1" class="st4" width="384" height="54.5"/>
		<text transform="matrix(1 0 0 1 360.6523 833.5806)" class="st5 st1 st2">24</text>
	</g>
	<g>
		<path class="st7" d="M-6,0.5h6.5v880H-6"/>
		<g transform="translate(0,50.6194690265487)">
			<line class="st7" x1="0" y1="0" x2="-6" y2="0"/>
			<text transform="matrix(1 0 0 1 -77.9307 3.2)" class="st8 st9">Mercedes 2016</text>
		</g>
		<g transform="translate(0,128.49557522123897)">
			<line class="st7" x1="0" y1="0" x2="-6" y2="0"/>
			<text transform="matrix(1 0 0 1 -77.9307 3.2)" class="st8 st9">Mercedes 2015</text>
		</g>
		<g transform="translate(0,206.37168141592923)">
			<line class="st7" x1="0" y1="0" x2="-6" y2="0"/>
			<text transform="matrix(1 0 0 1 -77.9307 3.2)" class="st8 st9">Mercedes 2014</text>
		</g>
		<g transform="translate(0,284.24778761061947)">
			<line class="st7" x1="0" y1="0" x2="-6" y2="0"/>
			<text transform="matrix(1 0 0 1 -63.4678 3.2)" class="st8 st9">Ferrari 2004</text>
		</g>
		<g transform="translate(0,362.12389380530976)">
			<line class="st7" x1="0" y1="0" x2="-6" y2="0"/>
			<text transform="matrix(1 0 0 1 -63.4678 3.2)" class="st8 st9">Ferrari 2002</text>
		</g>
		<g transform="translate(0,440)">
			<line class="st7" x1="0" y1="0" x2="-6" y2="0"/>
			<text transform="matrix(1 0 0 1 -71.085 3.2)" class="st8 st9">Red Bull 2011</text>
		</g>
		<g transform="translate(0,517.8761061946902)">
			<line class="st7" x1="0" y1="0" x2="-6" y2="0"/>
			<text transform="matrix(1 0 0 1 -77.9307 3.2)" class="st8 st9">Mercedes 2017</text>
		</g>
		<g transform="translate(0,595.7522123893806)">
			<line class="st7" x1="0" y1="0" x2="-6" y2="0"/>
			<text transform="matrix(1 0 0 1 -72.9307 3.2)" class="st8 st9">McLaren 1988</text>
		</g>
		<g transform="translate(0,673.6283185840708)">
			<line class="st7" x1="0" y1="0" x2="-6" y2="0"/>
			<text transform="matrix(1 0 0 1 -77.9307 3.2)" class="st8 st9">Mercedes 2018</text>
		</g>
		<g transform="translate(0,751.5044247787611)">
			<line class="st7" x1="0" y1="0" x2="-6" y2="0"/>
			<text transform="matrix(1 0 0 1 -63.4678 3.2)" class="st8 st9">Ferrari 2001</text>
		</g>
		<g transform="translate(0,829.3805309734513)">
			<line class="st7" x1="0" y1="0" x2="-6" y2="0"/>
			<text transform="matrix(1 0 0 1 -71.8223 3.2)" class="st8 st9">Red Bull 2013</text>
		</g>
	</g>
	<text transform="matrix(1 0 0 1 237.6455 6.6666)" class="st1 st2">Podium finishes</text>
</g>
</svg>
