<?xml version="1.0" encoding="utf-8"?>
<!-- Generator: Adobe Illustrator 23.1.1, SVG Export Plug-In . SVG Version: 6.00 Build 0)  -->
<svg version="1.1" id="Layer_1" xmlns="http://www.w3.org/2000/svg" xmlns:xlink="http://www.w3.org/1999/xlink" x="0px" y="0px"
	 viewBox="0 0 700 900" style="enable-background:new 0 0 700 900;" xml:space="preserve">
<style type="text/css">
	.st0{fill:#2ED2BE;}
	.st1{font-family:'ArialMT';}
	.st2{font-size:12px;}
	.st3{fill:#DC0300;}
	.st4{fill:#2041FF;}
	.st5{fill:#FFFFFF;}
	.st6{fill:#FB8703;}
	.st7{fill:#2086C0;}
	.st8{fill:none;stroke:#000000;}
	.st9{font-family:'Helvetica';}
	.st10{font-size:10px;}
</style>
<g transform="translate(120,20)">
	<g>
		<rect y="25.6" class="st0" width="444.5" height="59.8"/>
		<text transform="matrix(1 0 0 1 411.1445 59.734)" class="st1 st2">3.17</text>
	</g>
	<g>
		<rect y="111.1" class="st0" width="449.5" height="59.8"/>
		<text transform="matrix(1 0 0 1 416.1182 145.1709)" class="st1 st2">3.21</text>
	</g>
	<g>
		<rect y="196.5" class="st3" width="462.8" height="59.8"/>
		<text transform="matrix(1 0 0 1 429.4223 230.6078)" class="st1 st2">3.31</text>
	</g>
	<g>
		<rect y="281.9" class="st4" width="486.3" height="59.8"/>
		<text transform="matrix(1 0 0 1 452.9603 316.0447)" class="st5 st1 st2">3.47</text>
	</g>
	<g>
		<rect y="367.4" class="st0" width="486.7" height="59.8"/>
		<text transform="matrix(1 0 0 1 453.3112 401.4816)" class="st1 st2">3.48</text>
	</g>
	<g>
		<rect y="452.8" class="st0" width="540" height="59.8"/>
		<text transform="matrix(1 0 0 1 506.6445 486.9185)" class="st1 st2">3.86</text>
	</g>
	<g>
		<rect y="538.3" class="st6" width="560" height="59.8"/>
		<text transform="matrix(1 0 0 1 526.6445 572.3553)" class="st1 st2">4.13</text>
	</g>
	<g>
		<rect y="623.7" class="st0" width="560" height="59.8"/>
		<text transform="matrix(1 0 0 1 526.6445 657.7922)" class="st1 st2">4.21</text>
	</g>
	<g>
		<rect y="709.1" class="st3" width="560" height="59.8"/>
		<text transform="matrix(1 0 0 1 526.6445 743.2291)" class="st1 st2">4.24</text>
	</g>
	<g>
		<rect y="794.6" class="st7" width="560" height="59.8"/>
		<text transform="matrix(1 0 0 1 526.6445 828.666)" class="st1 st2">4.81</text>
	</g>
	<g>
		<path class="st8" d="M-6,0.5h6.5v880H-6"/>
		<g transform="translate(0,55.53398058252428)">
			<line class="st8" x1="0" y1="0" x2="-6" y2="0"/>
			<text transform="matrix(1 0 0 1 -77.9307 3.2)" class="st9 st10">Mercedes 2017</text>
		</g>
		<g transform="translate(0,140.9708737864078)">
			<line class="st8" x1="0" y1="0" x2="-6" y2="0"/>
			<text transform="matrix(1 0 0 1 -77.9307 3.2)" class="st9 st10">Mercedes 2015</text>
		</g>
		<g transform="translate(0,226.4077669902913)">
			<line class="st8" x1="0" y1="0" x2="-6" y2="0"/>
			<text transform="matrix(1 0 0 1 -63.4678 3.2)" class="st9 st10">Ferrari 2004</text>
		</g>
		<g transform="translate(0,311.84466019417476)">
			<line class="st8" x1="0" y1="0" x2="-6" y2="0"/>
			<text transform="matrix(1 0 0 1 -71.085 3.2)" class="st9 st10">Red Bull 2011</text>
		</g>
		<g transform="translate(0,397.2815533980583)">
			<line class="st8" x1="0" y1="0" x2="-6" y2="0"/>
			<text transform="matrix(1 0 0 1 -77.9307 3.2)" class="st9 st10">Mercedes 2016</text>
		</g>
		<g transform="translate(0,482.7184466019418)">
			<line class="st8" x1="0" y1="0" x2="-6" y2="0"/>
			<text transform="matrix(1 0 0 1 -77.9307 3.2)" class="st9 st10">Mercedes 2018</text>
		</g>
		<g transform="translate(0,568.1553398058252)">
			<line class="st8" x1="0" y1="0" x2="-6" y2="0"/>
			<text transform="matrix(1 0 0 1 -72.9307 3.2)" class="st9 st10">McLaren 1988</text>
		</g>
		<g transform="translate(0,653.5922330097087)">
			<line class="st8" x1="0" y1="0" x2="-6" y2="0"/>
			<text transform="matrix(1 0 0 1 -77.9307 3.2)" class="st9 st10">Mercedes 2014</text>
		</g>
		<g transform="translate(0,739.0291262135922)">
			<line class="st8" x1="0" y1="0" x2="-6" y2="0"/>
			<text transform="matrix(1 0 0 1 -63.4678 3.2)" class="st9 st10">Ferrari 2002</text>
		</g>
		<g transform="translate(0,824.4660194174758)">
			<line class="st8" x1="0" y1="0" x2="-6" y2="0"/>
			<text transform="matrix(1 0 0 1 -71.2412 3.2)" class="st9 st10">Williams 1996</text>
		</g>
	</g>
	<text transform="matrix(1 0 0 1 211.7324 6.6666)" class="st1 st2">Average finishing position</text>
</g>
</svg>
