<?xml version="1.0" encoding="UTF-8" standalone="no"?>
<svg xmlns:rdf="http://www.w3.org/1999/02/22-rdf-syntax-ns#" xmlns="http://www.w3.org/2000/svg" height="83.8934" width="61.83099" version="1.1" xmlns:cc="http://creativecommons.org/ns#" xmlns:dc="http://purl.org/dc/elements/1.1/" viewBox="0 0 61.83099 83.8934"><g id="g3931"><g id="g3140"><g id="g120"><path id="path122-4" d="M61.831,7.10553V8.70319L30.91416,3.26712.0002,8.70319V7.10553l30.914-5.47259Z" fill="#fff"/></g><g id="g124"><path id="path126-0" d="M61.831,5.46971V7.10582L30.91416,1.63322.0002,7.10582V5.46971L30.91416,0Z" fill="#0d8922"/></g><g id="g128"><path id="path130-9" d="M61.831,8.7028,30.91416,3.26769.0002,8.7028v5.5149l.26927-.15093C.37775,14.00429,11.34713,7.903,30.97644,7.903c19.62835,0,30.47123,6.10416,30.57952,6.16376l.26257.15285Z" fill="#ed1c24"/></g><g id="g132"><path id="path134-4" d="M30.97624,8.97081c17.7233,0,28.10142,5.00253,29.78032,5.87922V30.72662a58.96556,58.96556,0,0,1-6.03617,25.63556c-8.76822,18.251-21.95792,25.41542-23.80548,26.35267-1.84755-.93725-15.04971-8.10171-23.816-26.35267A58.9938,58.9938,0,0,1,1.06177,30.72662V14.852c1.69806-.87573,12.18446-5.88114,29.91447-5.88114" fill="#fff200"/></g><g id="g136"><path id="path138-8" d="M30.97624,8.97081c17.7233,0,28.10142,5.00253,29.78032,5.87922V30.72662a58.96556,58.96556,0,0,1-6.03617,25.63556c-8.76822,18.251-21.95792,25.41542-23.80548,26.35267-1.84755-.93725-15.04971-8.10171-23.816-26.35267A58.9938,58.9938,0,0,1,1.06177,30.72662V14.852c1.69806-.87573,12.18446-5.88114,29.91447-5.88114M.26927,14.06658,0,14.21751V30.72662a60.0197,60.0197,0,0,0,6.14159,26.095C15.71188,76.753,30.545,83.72229,30.69547,83.79054l.21945.10286.21944-.10286c.14853-.06825,14.97114-7.04142,24.54143-26.96887a59.99534,59.99534,0,0,0,6.1435-26.095V14.21943l-.26352-.15285c-.10829-.0596-10.95118-6.1628-30.57953-6.1628-19.62931,0-30.59868,6.10032-30.707,6.1628" fill="#0a0a0a"/></g><g id="g140"><path id="path142-8" d="M23.36476,65.61533c-1.46232-.56908-2.30273-.88246-2.3219-1.57458-.00862-1.16989,1.46329-.88919,1.79964-.769a4.50314,4.50314,0,0,1,2.59406,2.04273s-.31432-1.8697-.38427-2.22441c-.069-.35087-.27982-.30858-.38906-.29512-.21945.01538-.229.40374-.229.40374s-4.71376-1.986-4.71376,1.12278c0,1.45539,1.55049,1.69571,2.23853,2.05908,1.39717.74115,3.15656,1.18045,3.306,2.2917.13608.993-.75033,2.10329-2.664,2.10329a2.70489,2.70489,0,0,1-2.665-2.17635c.07282-.35663.42547-.14323.711-.14323a.62077.62077,0,0,0,.53855-.895c-.17824-.4518-1.65494-.48929-1.65494,1.01993,0,2.135,2.11491,2.78,3.03485,2.78a3.09983,3.09983,0,0,0,3.24856-2.26287c.45326-2.02639-.53185-2.72717-2.44936-3.48274M42.767,63.885a27.1473,27.1473,0,0,0,2.7033-.33933,6.39715,6.39715,0,0,0,2.13312-1.06511,11.5387,11.5387,0,0,1-3.21406.57485,7.69835,7.69835,0,0,1-2.63813-.04326,7.37592,7.37592,0,0,0-3.22364-.19322,2.10321,2.10321,0,0,0-1.86672,1.75531c-.10828.68732.689,1.09394,1.36267.92572a1.51427,1.51427,0,0,0,.94582-1.05453,2.59879,2.59879,0,0,1-.95444.46142c-.48777.08843-.74171-.25378-.60276-.59889a1.26424,1.26424,0,0,1,1.0886-.869,7.42287,7.42287,0,0,1,1.84564-.00961c.92857.09036,1.39621.25955,1.14706.69309a6.8627,6.8627,0,0,0-1.07806,1.75242c-.20316.496-.15141.746-.48585.746a1.28474,1.28474,0,0,0-.94007.21917.9989.9989,0,0,0-.34785.82959,1.12392,1.12392,0,0,1,1.06368-.49218c.17824,0,.06325.46142-.115.82767-.17441.3624-1.07039,2.78-2.94766,2.78a2.11986,2.11986,0,0,1-2.1954-2.23115c.19357-.48641.53376-.04422.92856-.1538a.6078.6078,0,0,0,.24149-1.07376c-1.195-.82286-2.33053,1.20065-1.08764,2.98,1.17484,1.69666,3.04156,1.05453,4.01517.5412a4.7851,4.7851,0,0,0,1.84468-2.22249c.32677-.66425.61713-1.40348.61713-1.40348a3.49022,3.49022,0,0,0,1.03014-.1538,1.61649,1.61649,0,0,0,.77429-.73443,3.12433,3.12433,0,0,1-1.5754.20764c-.14087,0,.18878-.69693.49926-1.30158A3.30678,3.30678,0,0,1,42.767,63.885" fill="#0a0a0a"/></g><g id="g144"><path id="path146-2" d="M29.64128,13.30035c.02971.00192.40631-.17688.40631-.17688a2.54339,2.54339,0,0,0-.07-.39124c-.0067-.01154-.81836-.96321-.81836-.96321L29.12,11.72288l-.01533.06056-.08433.38451c0-.0048-.26161.62-.26161.62l-.01246.024.54718.28166.34785.20668M49.4172,33.0365c-.03833-.0471-.06995-.05095-.08912-.04422-.0182.00577-.046.02307-.05174.08171-.03354.24416-.33923.87477-.58647.968a2.05371,2.05371,0,0,0-.92857,1.19584c-.09582.21725-.18878.42585-.26065.4297-.03354.00192-.06612-.03077-.10541-.10286a3.04263,3.04263,0,0,1,0-1.97833l.03546-.15957a5.466,5.466,0,0,1,1.12693-1.77165l.16962-.20283a3.00928,3.00928,0,0,0,.276-1.5073.02886.02886,0,0,0-.03354.0125l-.01342.01922-.00575-.001v.00385a.11333.11333,0,0,0-.04024.07594,5.98216,5.98216,0,0,1-1.76515,1.96967,5.648,5.648,0,0,0-.67462.81133,2.0985,2.0985,0,0,1-.32773.39989,3.49094,3.49094,0,0,1,.44368-2.62238l.10445-.199a5.84182,5.84182,0,0,1,1.631-2.1802.07648.07648,0,0,0-.01341-.09708c-.04313-.03653-.12362-.01923-.25491.04518l-.0709.03653a5.11984,5.11984,0,0,0-2.38228,2.23691,6.94351,6.94351,0,0,0-.75033,3.07611,3.28219,3.28219,0,0,0,.14375,1.06318,30.73966,30.73966,0,0,1,.87011,3.15014,24.48347,24.48347,0,0,1,.10349,2.81368c0,.45084-.00191.76422-.00191.77768l-.23382.744a3.618,3.618,0,0,1-1.06177,1.56305,5.21689,5.21689,0,0,1-2.02963,1.29582,1.87273,1.87273,0,0,1-.82986-.04038c0-1.1199-1.9108-3.72306-2.88729-4.58148a20.18818,20.18818,0,0,0-3.14889-2.33208c-1.38087-.843-2.91316-4.371-2.92945-4.40653l-.13415-.4768s-.07475-.95263-.09487-1.19968c.05078.02787.11307.06825.11307.06825l.47147.27589c.0048.001.53855.20571.53855.20571.00671.00481.70913.14131.70913.14131l.39193.20379.36606.23744.56826.41047.58167.30665c.01246.00192.69859.03749.69859.03749l.01437-.05672-.79728-.373c0-.01346-.28557-.50564-.28557-.50564l-.33444-.47872c-.01246-.00865-.413-.24993-.413-.24993-.01149-.00481-.50788-.074-.51076-.074,0-.00192-.10157-.09132-.15428-.1365.045-.025.13033-.07883.13033-.07883,0,.00673.54813.07018.55.07018,0,.00576.48584.33837.48584.33837l.53185.41143c.00958.00577.506.19706.506.19706l.06325.02692-.21465-.56908c-.00767-.01058-.414-.38836-.414-.38836l-.60275-.51429c-.00192-.00481-.47147-.24513-.47147-.24513-.00575-.00288-.50693-.17207-.50693-.17207l-.529-.34029.01054-.06729c.06421.024.73116.29319.73116.29319l.64013.174.53185.20475.7647.37394c.00671.00385.64492.14228.64492.14228.00862,0,.78-.13843.78-.13843.01342-.00577.74938-.51909.74938-.51909.00958-.01442.14565-.32011.14565-.32011l.02971-.07018-.23957.099-.66983.34029-.46093.10094-.52418-.10382h.00192c0-.00481-.4226-.40086-.4226-.40086l-.60276-.5835-.54142-.27973c-.00863-.00193-.643-.10574-.643-.10574,0-.00193-.38618-.19707-.39193-.20187.00192,0,.00192-.00673.00192-.01827,0-.04614-.00959-.148-.01534-.19706.068.00769.79825.06825.79825.06825.00575,0,.87394-.06921.87394-.06921l.49256.1.49926.20764.51076.06921.091.01346-.56922-.547c-.00479-.00385-.57209-.41432-.57209-.41432-.00671-.00192-.4753-.174-.4753-.174-.00863-.00288-.79154-.06825-.80783-.06825.00671-.00288.00767-.01538.00767-.03557,0-.04518-.00767-.11439-.0115-.15.04887-.00961.36893-.06152.36893-.06152l.5903.13554.56059.33837c.00767.00193.60755.20764.60755.20764.01533,0,.88257-.13554.88257-.13554l.0527-.00769-.26352-.34991c-.01438-.0125-.44847-.14708-.45231-.14708l-.35743-.27108-.53568-.37778c-.00671-.00385-.40727-.13939-.40727-.13939-.00958-.00289-.63917-.10286-.64013-.10286,0-.00769-.31239-.29319-.31814-.29992a.826.826,0,0,0,.03737-.14515l.33252.09228.42931.20571.60946.19226-.13224-.27012c-.00958-.00673-.23765-.247-.23765-.247s-.14854-.1913-.20986-.26916c.04216-.00865.092-.02211.092-.02211,0,.00769.64875.34126.64875.34126.00479,0,.50118.174.506.174l.39.36625c.00671.00576.74362.423.74362.423l.07283.04326-.1332-.3624c-.00288-.00769-.40535-.522-.40535-.522l-.33348-.57677c-.00192-.00769-.60659-.622-.60659-.622-.00671-.00769-.77429-.41912-.77429-.41912l-.2961-.33548-.53472-.55082c0-.00769-.05462-.19322-.08433-.29031.091.0298.52226.17207.52226.17207l.60276.17015.42835.27012.35743.43931c.01342.00865.58072.25089.58072.25089.01054.00192,1.45562.18841,1.45562.18841l.08241.01058-.39673-.41912c-.0115-.00769-.78-.35183-.78-.35183l-.46189-.33741c0-.00769-.25969-.47392-.25969-.47392l-.26928-.47872c-.00479-.00769-.43793-.41623-.43793-.41623-.00575-.00577-.54238-.31434-.54238-.31434l-.529-.4422c0-.00288-.12841-.27012-.21082-.446.137.13073.36606.35664.36606.35664l.70625.61714c.00766.00481.5443.24513.5443.24513l.4571.37105.53471.546c.01821.01058.85383.12689.85383.12689l.10157.01538-.84711-.73442c0-.01538-.18974-.60368-.18974-.60368-.00671-.0125-.44368-.42489-.44368-.42489l-.23191-.27109c0-.00672-.22806-.7075-.22806-.7075-.00671-.01346-.47818-.49026-.47818-.49026,0-.00576-.76471-.719-.76471-.72192v-.00385c0-.00961-.02683-.1192-.04312-.19033l.137.07113.70146.40855c.00767.00577.84424.24609.84424.24609l.87107.20571,1.00715.16342-.23765-.48256c-.01533-.01538-.51651-.22014-.51651-.22014l-.46381-.27108c-.00671-.00481-.57305-.24321-.57305-.24321l-.49926-.20475c0-.00577-.32581-.42489-.505-.65656.17345.11632.43793.299.43793.299.01438.00481.45231.04038.45231.04038h1.37225l.5558.30472.47339.51333.06324.06825-.05941-.57773c-.00575-.0173-.30569-.39317-.30569-.39317-.00671-.00673-.81166-.45468-.81166-.45468-.00575,0-.64013-.24129-.64013-.24129-.00575,0-.96785-.17207-.97456-.17207v-.001c0-.00961-.184-.23071-.184-.23071l-.70433-.65175c-.00479-.00384-.34211-.17591-.34211-.17591,0-.00193-.10828-.11344-.17153-.18073h.36031l.551.33838c.00767.00192.74266.24128.74266.24128.00575.001.942.13746.942.13746,0,.00962.34785.40374.34785.40374.00767.00289.51076.31146.51076.31146.01246.00481.57976.10382.57976.10382l.07954.01346-1.18922-1.464c-.00959-.00577-.5788-.31434-.5788-.31434-.00479-.00385-.67079-.20956-.67079-.20956,0-.00769-.5903-.67675-.5903-.67675-.00575-.00769-.74458-.4518-.74458-.4518-.00575-.00289-.43218-.10671-.53376-.12978.03354-.05383.14278-.23743.14278-.24032.00192.00673.59126-.26051.59126-.26051l.86149-.16726a1.38616,1.38616,0,0,0,.091-.22783,3.48683,3.48683,0,0,0-.37851-.27492c-.00767-.00289-.44273-.14035-.44273-.14035a2.42186,2.42186,0,0,0-.25969.13939l-.72254.02883-.86341-.20475-.88736-.74788c-.00671-.00288-.40822-.20668-.40822-.20668-.0115-.00384-1.47671-.17495-1.48246-.17495,0-.02019-.34593-.53447-.34593-.53447-.00192-.00577-.46956-.51718-.46956-.51718-.00191-.0048-.60179-.545-.60179-.545l-.01917.03845-.20028.446-.19836.30281v.00961c0,.05479.02875.35279.02875.35279.00958.01827.20411.22014.207.224-.00958,0-.07474.30954-.07474.31242-.00192-.02019-.804.01154-.804.01154,0-.00481-.65833-.30569-.65833-.30569l-.50309-.17207c-.0115,0-1.18347.03364-1.18347.03364-.023.01442-.22424.322-.22424.322l-.02492.03941.5146.075c0,.00289.07474.051.11882.07787-.0412.03461-.13224.10862-.13224.10862,0-.00672-.7187-.04037-.7187-.04037-.01055.001-.51268.20668-.51268.20668l-.05175.02307.24915.16726c.01438.00673,1.08573.04038,1.08573.04038.001.001.78962.20475.79441.20571,0,.01154.15236.22782.15236.22782s.10733.15093.14662.21149c-.05079.02884-.34019.18937-.34019.18937.00479-.00192-.9669.41047-.9669.41047L25.376,16.36108l-1.32434.19706c-.00767.00193-.51555.28743-.51555.28743-.0115.00673-.41685.572-.41685.572-.00575.00481-.23574.71039-.23574.71039-.0182,1.19584.02971,1.22372.04792,1.23429a.74182.74182,0,0,0,.64875.07787,6.0969,6.0969,0,0,1,1.28313-.3999c.16482-.03364.2434.026.25778.08748.0182.06729-.03163.15861-.1562.19322l-.068.02115c-.58455.15861-1.17964.35183-1.16143.57773l.10445.17207a2.07951,2.07951,0,0,0,1.29559.01634l.37564-.10382a2.5883,2.5883,0,0,1,1.00715-.173,1.74287,1.74287,0,0,1,.528.18649,2.4476,2.4476,0,0,0,.98607.29415,3.858,3.858,0,0,1,1.263.24032,1.273,1.273,0,0,1-.01437.73154l-.03929.21629c-.20316,1.85336-2.26536,3.94512-3.25718,4.95062a3.96219,3.96219,0,0,0-.48393.52775l-.114.26243a.84666.84666,0,0,1-.48968.58542,8.14487,8.14487,0,0,0-1.10106.76134,6.69907,6.69907,0,0,1-1.83606,1.166,13.15952,13.15952,0,0,1-2.389-1.43809c-1.85138-1.79664-2.62471-1.4275-3.08756-1.20929l-.07474.0346c-.551.2509-1.12981,1.82068-1.18347,2.15713l-.22328.96705-.17153.71039c-.05079.23744-.27886.82767-.49735,1.39867l-.4456,1.241a7.914,7.914,0,0,1-.39768,1.018l-.19836.48257a13.62943,13.62943,0,0,0,.0987,3.95088l.01246.0125.04695.01346c.23765-.024.75512-.55755,1.0014-.81517l.0575-.05864a2.01214,2.01214,0,0,0,.43314-1.01223,4.23893,4.23893,0,0,0-.15045-.84978,5.55266,5.55266,0,0,1-.14853-2.47243l.02491-.2086a1.47406,1.47406,0,0,1,.44464-.6902l.26928-.31049a.93523.93523,0,0,1,.45326-.31915l.23861-.13554.0345-.03846a2.06176,2.06176,0,0,0,.54142-.78729l.22711-.9834.04792-.2605a.10467.10467,0,0,1,.08145-.09036.32766.32766,0,0,1,.28461.12785l1.63769,1.90622a3.91974,3.91974,0,0,1,.851.87958v.00673l-.0115.00192a9.88865,9.88865,0,0,1-1.57349-.27877c-1.56869-.46046-2.28453-.37874-2.83745.31434-.62959.7921-.43122,3.22415-.30377,3.49043.12074.24224.69283,3.203.72062,3.59809a2.92644,2.92644,0,0,0,.33156,1.23814l.04121.04421a2.69369,2.69369,0,0,1,.79153,1.21122A4.83109,4.83109,0,0,0,18.646,44.75841a.2131.2131,0,0,0,.19644-.03749c.34019-.2432.49352-1.42174.51364-1.92065a1.73143,1.73143,0,0,0-.437-1.242l-.091-.12689a1.22951,1.22951,0,0,0-.68133-.38163c-.08529-.024-.20316-.05191-.20316-.07786,0-.01058-.02587-.91995-.31431-1.09491a2.75234,2.75234,0,0,1-.482-1.35252,5.68379,5.68379,0,0,0-.32485-1.48423,2.88825,2.88825,0,0,1-.24436-1.5073.33352.33352,0,0,1,.30665-.30088.59635.59635,0,0,1,.50309.13362,11.2771,11.2771,0,0,0,2.29507,1.38714,5.41316,5.41316,0,0,1,1.23043.88438,4.62492,4.62492,0,0,0,.70624.53543,4.56951,4.56951,0,0,0,1.3023.124,3.37981,3.37981,0,0,1,.56155.03364c-.19645.07979-.19453.42682-.18016.53736.20316,1.43232,5.4018,5.37167,5.8014,5.59372a15.7081,15.7081,0,0,1,2.28165,2.23595,1.19555,1.19555,0,0,1,.27024.68636,1.1858,1.1858,0,0,0,.30856.895,1.09829,1.09829,0,0,0,.782.40277c.23286,0,.38714-.20571.50117-.35663l.022-.03461a3.42586,3.42586,0,0,0,.83179-1.9591c.06037-.96513.505-1.3506.64683-1.37559.06612-.0125.11212.00672.12937.05.01629.04614-.00479.11728-.09008.17591a2.12831,2.12831,0,0,0-.43985,1.01416l-.05078.46815a1.54382,1.54382,0,0,1-.3699,1.118,6.46889,6.46889,0,0,0-1.26013,3.48466,8.32939,8.32939,0,0,0,1.31092,4.20274l.068.12881.25969.43835a5.36718,5.36718,0,0,1,.68229,1.29485,1.54387,1.54387,0,0,1-.45135.92091,26.02082,26.02082,0,0,1-2.204,2.46089.77722.77722,0,0,0-.63246.23552l-.27215.20667a.90282.90282,0,0,0-.39673.51237.54449.54449,0,0,1-.2089.299l-.1035.0721c-.02108.01634-.08145.099-.72541.74788A2.82008,2.82008,0,0,0,29.0366,65.18c.03258.25666.25682.347.9142.37875A3.72663,3.72663,0,0,0,32.18166,64.186l.023-.12881c.05462-.31146.15333-.83536.32486-.90938a3.90737,3.90737,0,0,0,.81453-.79882l.05271-.05192a.9731.9731,0,0,0,.20219-.471.91908.91908,0,0,1,.13224-.348.65135.65135,0,0,1,.254-.173,1.10911,1.10911,0,0,0,.63342-.67386,7.70568,7.70568,0,0,1,2.04208-1.78607,5.59009,5.59009,0,0,0,.79154-.61715,1.19168,1.19168,0,0,0,.16674-.67,1.22146,1.22146,0,0,0-.29324-.87285,4.20311,4.20311,0,0,1-.66216-1.36022v-.00769c0-.10766-.00863-.30377-.02684-.67194a.429.429,0,0,1-.00191-.05c0-.96706,1.43549-1.913,2.05741-2.32247l.28078-.198c2.24716-1.986,2.687-3.49715,2.76942-3.91147l.047-.49794c.01438-.34607.024-.67194.2319-.71616a.3719.3719,0,0,1,.29611.148.28512.28512,0,0,1,.07091.29223c-.10062.27781-.138,3.08092-.138,3.19819.00767.02019.2434.29416.2434.29416l.04217.051.0115-.06537c.00287-.03172.1332-.79594.1332-1.067a4.74814,4.74814,0,0,1,.60179-1.61881.03273.03273,0,0,0,.00479.01346,4.14336,4.14336,0,0,1,.13225,1.09106,2.08181,2.08181,0,0,1-.29132,1.218,6.26029,6.26029,0,0,0-.781,1.5121l-.16.372a.43505.43505,0,0,0-.02395.16053,3.33574,3.33574,0,0,0,.30185,1.25448c.03259.03172.05654.03172.07571.024.03737-.01441.07474-.06344.07474-.36048a2.872,2.872,0,0,1,.95924-1.962,3.6048,3.6048,0,0,0,1.01864-2.83964,7.63238,7.63238,0,0,0-.10636-1.27081c-.00384-.01058-.39194-.57485-.40056-.58735.0182.00865.12553-.08075.1629-.10959.03546.04423.41494.55274.41494.55274a1.328,1.328,0,0,1,.23.4595,5.362,5.362,0,0,0,.15237,1.27274l.01437.07018a14.13025,14.13025,0,0,0,.505,1.34387l.04408.10575.01246-.11536a4.12117,4.12117,0,0,0,0-.96705,3.32857,3.32857,0,0,1,.06037-.88342l.07283-.75461a2.40819,2.40819,0,0,0-.30281-1.35733l-.11116-.16727a.49975.49975,0,0,1-.08241-.15188l.08241-.03749a4.96478,4.96478,0,0,0,2.9237-2.62719,6.076,6.076,0,0,0,.368-2.17155,11.10081,11.10081,0,0,0-.26735-2.61469,3.74859,3.74859,0,0,1-.05367-1.50249l.05558-.92188a2.65346,2.65346,0,0,1,.65355-1.55151l.38043-.59311a1.05369,1.05369,0,0,0,.01533-1.04877M31.26076,55.87568l.77237.36913a1.1331,1.1331,0,0,0,.83466.05287,1.81557,1.81557,0,0,0,.60659-.86035.41232.41232,0,0,0-.06229-.38451A11.18459,11.18459,0,0,1,32.38,52.16223a10.26065,10.26065,0,0,1,.08337-1.9716,6.26787,6.26787,0,0,0,.068-1.12181c-.05462-.15573-.28461-.30569-.55293-.47584l-.4226-.28646a.87.87,0,0,1-.24723-.70559l-.04408-.422a9.50381,9.50381,0,0,0-2.38515-2.43686c-.44464-.03076-.56059.45853-.58934.75173a10.82147,10.82147,0,0,0,.36127,1.62553l.19645.82382a17.63538,17.63538,0,0,0,2.15707,4.54207l.276.471c.12266.27589.07378.49122-.13895.61042a10.33144,10.33144,0,0,1-2.83841-.26339,9.06027,9.06027,0,0,1-1.25726-.44316,5.28718,5.28718,0,0,0-1.25822-.41239,1.06273,1.06273,0,0,0-.59125.10478l-.19357.05287-.19166-.06056a5.41133,5.41133,0,0,0-1.883-.40662c-1.7546-.16438-1.88684.19034-1.95776.37971-.08816.24513.988,1.38906,1.17868,1.54094a2.509,2.509,0,0,0,1.515.42008,13.11343,13.11343,0,0,1,1.56007-.1788l.17824.11055.16961.12016a11.55391,11.55391,0,0,0,1.43071.13266c.3421.01826,1.241.20475,1.89642.34126l.735.15092a9.81987,9.81987,0,0,1,1.62619.72" fill="#0a0a0a"/></g><g id="g148"><path id="path150" d="M29.99785,54.33992l.02587-.03941c.047-.19322-.919-.49314-1.43262-.62676a3.65837,3.65837,0,0,0-1.516-.1836l-.01246.0048-.024.0423c-.04695.19129.918.49122,1.43167.6258a3.83073,3.83073,0,0,0,1.51791.18168Zm-4.0813-1.37079c-.161,0-.28844.08651-.28844.199,0,.10671.12745.19707.28844.19707.15429,0,.2827-.09036.2827-.19707,0-.10958-.12841-.199-.2827-.199m-3.34629-.23455c-.22616,0-.4111.12977-.4111.28934,0,.16438.18494.28839.4111.28839.229,0,.41206-.124.41206-.28839,0-.15957-.183-.28934-.41206-.28934m7.89906,10.99806a.71052.71052,0,0,0-.42835.24225.72264.72264,0,0,0-.23957.4393.134.134,0,0,0,.04121.1067l.10637.0423a.70229.70229,0,0,0,.4293-.2432c.21178-.21725.29515-.446.19933-.54794Zm1.50928-2.185a.668.668,0,0,0-.3766.224c-.16.16053-.2779.38355-.18974.47584l.08337.0298a.65372.65372,0,0,0,.37948-.22495c.15716-.16149.2779-.38066.18686-.472Zm3.44309-3.18858-.03163-.00866a4.84367,4.84367,0,0,0-1.31092,1.08818c-.047.04806-1.193,1.22948-1.04164,1.38137l.00671.00865.03737.00961a4.89123,4.89123,0,0,0,1.31092-1.08529c.04887-.051,1.19976-1.22756,1.04069-1.38521Zm-3.4565-4.57957a.25993.25993,0,1,0,0,.5191.25984.25984,0,1,0,0-.5191m4.74442,3.78266a.30863.30863,0,1,0,0,.61715.30861.30861,0,1,0,0-.61715m-2.01525-2.234.01437-.08459c.00383-.051.1562-1.22564-.20411-1.67937a.45146.45146,0,0,0-.3124-.175.21652.21652,0,0,0-.22136.09325c-.21945.35663.64108,1.713.67941,1.77357Zm-1.25822-4.21523c.01054.01249.03641.06248.07954.05864h.01725l.03354-.04807.275-.84593.21657-.56235.184-.42585q.08193-.2134,0-.29415c-.08816-.08171-.27119-.01442-.29227-.00673-.01725.01345-.51939.8565-.51939.8565a1.04466,1.04466,0,0,0-.13607.56428,1.63837,1.63837,0,0,0,.14182.70366m-15.04971-7.946a.29908.29908,0,1,0,.3076.29992.305.305,0,0,0-.3076-.29992m-4.45215-5.70523a.25362.25362,0,0,0-.26257.24417.25033.25033,0,0,0,.26257.23359.25367.25367,0,0,0,.26544-.23359.25684.25684,0,0,0-.26544-.24417m1.81114-1.0526-.00958-.00673-.05175-.00577c-.18015.04133-.05366.82863.03833,1.241a2.62624,2.62624,0,0,0,.43506,1.12086l.01054.00673.04983.00576c.18207-.04325.05271-.83151-.04121-1.241a2.50477,2.50477,0,0,0-.43122-1.12085m.15428-2.78389c.13224-.1788.16-.3797.06037-.45565l-.11691-.025a.48853.48853,0,0,0-.29514.21437c-.1332.17687-.15812.37874-.06037.45468l.114.02308a.49021.49021,0,0,0,.298-.21149m-.34114-2.54933A1.8881,1.8881,0,0,0,16.054,30.179c.16386-.49121.253-1.019.092-1.07567l-.07283.00576a1.90208,1.90208,0,0,0-.49734.89977c-.16674.49314-.252,1.01992-.09679,1.07472ZM17.07838,27.744c-.24915,0-.44943.12112-.44943.26916,0,.15.20028.26916.44943.26916.2549,0,.45518-.1192.45518-.26916,0-.148-.20028-.26916-.45518-.26916m4.70705,3.06362a2.62,2.62,0,0,0-.74937,1.20353,3.95173,3.95173,0,0,0-.30282,1.216c0,.13554.02875.23167.09583.26051l.09966-.00769A2.65514,2.65514,0,0,0,21.681,32.2765a4.01065,4.01065,0,0,0,.30281-1.217c0-.13746-.03066-.23167-.09391-.25762Zm-2.56818.35855.07092-.03076c.091-.10093-.11691-.39028-.3699-.62195a1.07555,1.07555,0,0,0-.57784-.33933l-.069.0298a.09536.09536,0,0,0-.02109.06344,1.12661,1.12661,0,0,0,.39.56043,1.08665,1.08665,0,0,0,.57688.33837m.24436,4.27869a5.48539,5.48539,0,0,0-1.43262-.50852l-.023.05575.99949.75749c.16578.13458.89407.58735,1.12884.40278a.11581.11581,0,0,0,.04408-.09805c-.00575-.13842-.25586-.31914-.71679-.60945m10.07148,8.25648c-.023-.03076-2.595-2.82522-3.1489-3.55772-.5673-.75076-.83849-.8094-1.11351-.65463a.14945.14945,0,0,0-.07283.11343c-.03929.30665.6018,1.04491,1.16334,1.58516.78483.76037,3.10769,2.54067,3.12973,2.55894Zm10.88025,2.7137-.01437-.00384-.00958.00384a.50477.50477,0,0,0-.24245.27109.39.39,0,0,0,.08145.30665l.06325.11631.02492.223.04024.33549a.16361.16361,0,0,0,.16195.11439.24538.24538,0,0,0,.21466-.199,3.23272,3.23272,0,0,0,.06516-.745c0-.29992-.37085-.4172-.38523-.423m-7.01266-3.84322a.16174.16174,0,0,0,.17058.02691.285.285,0,0,0,.184-.24128,1.142,1.142,0,0,1,.298-.571.51692.51692,0,0,0-.03067-.71328l-.21657-.08555a.40041.40041,0,0,0-.24723.11824c-.00862.0173-.21082,1.043-.21082,1.043V42.147c-.02012.05864-.03929.33549.0527.42489m13.53852-4.247-.06037.01057c.00191.01058.01533.46046.01533,1.03723a12.157,12.157,0,0,1-.17345,2.47243,9.36085,9.36085,0,0,1-1.09818,1.82067l-.50693.76134a.17586.17586,0,0,0-.023.08747.23529.23529,0,0,0,.10541.19226c.05175.03461.23574.12593.4916-.18264l.32485-.34414A4.77312,4.77312,0,0,0,47.36467,42.022c.414-1.3035-.41781-3.674-.42547-3.6971m-13.13892-.65656c.4044.18937.54718.2557.60659.27589l.00288.00384.00383-.00192c.02779.00865.03642.00769.04312-.00481l-.02683-.03268.00863-.0125-.02492-.01442a14.6684,14.6684,0,0,1-2.21841-4.14025.84417.84417,0,0,0-.27885-.57.4001.4001,0,0,0-.34594-.00866.10228.10228,0,0,0-.07091.075.317.317,0,0,0-.01725.13073,7.98915,7.98915,0,0,0,.76087,2.32919c1.0311,1.68129,1.538,1.961,1.55719,1.97064m-3.8398-6.20894a.277.277,0,0,0,.1102-.27012c-.02683-.50756-.16483-.56524-.44368-.56524a.51926.51926,0,0,0-.48585.43354c0,.13842.10062.25859.29707.35952a.597.597,0,0,0,.52226.0423m-4.60931-2.35034.33923-.06153a6.59781,6.59781,0,0,1,1.31188-.1836,3.59633,3.59633,0,0,1,1.17.23744c.29036.09805.4341.14034.49256.07786.03354-.03941.0115-.09613-.00671-.13746-.08816-.18938-.47243-.81133-1.723-.84113a2.07779,2.07779,0,0,0-1.61757.77095c-.02875.04711-.03737.08267-.023.10863l.01342.01923Zm7.29248.44411c.13511,0,.24819-.08267.24819-.18745,0-.1019-.11308-.18649-.24819-.18649-.137,0-.2482.08459-.2482.18649,0,.10478.11116.18745.2482.18745m.25011-.5114c.14182,0,.25777-.08267.25777-.18649s-.114-.18553-.25777-.18553c-.14662,0-.26065.08171-.26065.18553s.11786.18649.26065.18649m.25969-.53352a.2263.2263,0,1,0,0-.4393.22594.22594,0,1,0,0,.4393m.229-1.21891a.25383.25383,0,1,0,.27023.25571.26332.26332,0,0,0-.27023-.25571m.48584-.48064a.26794.26794,0,0,0-.28077-.25282.2544.2544,0,1,0,0,.50564.26668.26668,0,0,0,.28077-.25282m.28174-.8094a.35053.35053,0,0,0-.69,0,.35118.35118,0,0,0,.69,0m.1514-.83536a.33328.33328,0,1,0-.32294.25474.29862.29862,0,0,0,.32294-.25474m.28365-.66521c0-.14515-.19453-.25474-.44464-.25474-.24532,0-.44272.10959-.44272.25474,0,.14131.1974.25474.44272.25474.25011,0,.44464-.11343.44464-.25474m-.66887-.78921c0,.13266.1629.24128.37851.24128.21178,0,.37469-.10863.37469-.24128,0-.13651-.16291-.24225-.37469-.24225-.21561,0-.37851.10574-.37851.24225m.01629-.43643a.48278.48278,0,0,0,.35073.06056c.21848-.03076.37276-.15092.35456-.27588l-.06421-.1019a.47709.47709,0,0,0-.34977-.06153c-.21657.02884-.37372.15189-.35552.27685Zm.36318-.71135c.19549-.01634.33923-.124.32678-.248l-.06325-.11343a.42845.42845,0,0,0-.3009-.07306c-.18974.01538-.32869.11824-.32869.23647v.01346l.06421.10863a.40214.40214,0,0,0,.30185.07594m.10637-1.22949c-.17345,0-.31335.1019-.31335.23167,0,.12785.1399.23071.31335.23071.17153,0,.31048-.10285.31048-.23071,0-.12977-.139-.23167-.31048-.23167m-.0115-.73345a.22594.22594,0,1,0,.27886.22013.2517.2517,0,0,0-.27886-.22013m.0115-.58062a.2031.2031,0,1,0,.24819.199.22864.22864,0,0,0-.24819-.199m-.20219-.46238a.21454.21454,0,0,0,.21848.21053.20958.20958,0,1,0,0-.41913.21419.21419,0,0,0-.21848.2086m.10445-.869a.20825.20825,0,1,0,.21561.2086.21043.21043,0,0,0-.21561-.2086m-3.69128,3.551-.10349-.01154c-.27311.07114-.73979.87958-1.06656,1.47846l-.05942.10286-.98223,1.84759-.30569.5883a.14316.14316,0,0,0,.02779.18168.17329.17329,0,0,0,.23191.01058,5.1917,5.1917,0,0,0,1.03589-1.17085l.36989-.50852a4.3583,4.3583,0,0,0,.66409-1.06991l.05558-.14131c.37564-.97378.4341-1.12278.13224-1.30734m1.264-2.57433a.16092.16092,0,0,0-.20412-.07113l-.17632.13073a1.31423,1.31423,0,0,1-.41014.26916c-.32486.08556-.7647.23167-.79154.45661v.02788a.139.139,0,0,0,.05367.11824c.12266.1.42164.04133.63821-.04037a2.23179,2.23179,0,0,0,.79537-.51141c.16-.14612.15236-.29223.09487-.37971m-1.62524.125a.17647.17647,0,0,0,.08816.174.23245.23245,0,0,0,.28269-.10285l.25011-.21726a1.92384,1.92384,0,0,0,.41973-.37586c.12362-.16149.07091-.26051.02587-.30184a.28939.28939,0,0,0-.31719-.05287l-.07187.04806a1.55532,1.55532,0,0,0-.64588.66521.52087.52087,0,0,0-.03162.16342M28.983,19.1117l-.35073.248-.02588.02787a.11277.11277,0,0,0-.03641.15093l.04216.06056.093-.02019.13415-.0471.19549-.03461a.91762.91762,0,0,0,.49831-.15188l.12936-.21341.19166-.30953c.09391-.10093.09678-.173.08337-.21148a.10626.10626,0,0,0-.08816-.07114.17386.17386,0,0,0-.17058.06441,7.66846,7.66846,0,0,1-.6957.50756m-3.2131-.026a.22285.22285,0,0,0,.2204-.22494.21951.21951,0,1,0-.2204.22494m-.99757-1.45154c-.05078.04807-.02874.15093-.01437.23359l.00862.05768-.00862.03461a.10059.10059,0,0,0,0,.1c.01821.03077.07091.04518.15812.04518.10828.00193.12074-.01057.15907-.10862l.02875-.075a.22126.22126,0,0,0,.00191-.17495.34937.34937,0,0,0-.24244-.13362.092.092,0,0,0-.091.02115m-.84424-.0971a.35681.35681,0,0,0-.3076.174l-.07571.08747a.76923.76923,0,0,0-.15332.59023c.00479.0846.03067.23936.115.29127.161.09805.2367.02884.40248-.12881.01054-.01057.12745-.10862.12745-.10862a.85674.85674,0,0,0,.37373-.52871.2988.2988,0,0,0-.07-.2432.55778.55778,0,0,0-.41206-.13362m2.28453-.56235.069-.02115.56155-.22013.81645-.5364c.022-.01634.23478-.17976.19069-.28166-.02874-.06825-.13607-.05768-.21369-.04325a2.89591,2.89591,0,0,0-.67942.26531l-.33156.15572-.1447.06056c-.505.2086-.91611.396-.84041.58927.046.11343.25969.12593.57209.03172m3.261.28069a.27839.27839,0,0,0,.20412-.1067.71623.71623,0,0,0,.00766-.71519.667.667,0,0,0-.53663-.397l.001.00192-.045-.00769-.39.03364a.61041.61041,0,0,0-.44081.34607.18156.18156,0,0,0,.04025.19706,1.933,1.933,0,0,0,1.15951.64791m4.28158-.347c.02683-.08363.05174-.16149.01054-.20475-.03738-.03653-.10254-.03365-.21657.00769a.93616.93616,0,0,0-.51076.86227l-.01246.09228c-.02587.13362.04312.18264.08529.1961a.49009.49009,0,0,0,.44943-.175c.06324-.10478.4111-.199.66791-.27012l.09775-.026c.11595-.03461.17824-.07691.18782-.14035.01054-.07979-.07762-.15381-.15907-.199-.07187-.04518-.1792-.01538-.29515.01923a.51384.51384,0,0,1-.31048.02883c-.04313-.01922-.02684-.09228.00575-.19129m-.49447-1.93315a.1809.1809,0,0,0-.08433.198l.01533.06056c.01917.0721.02683.08556.091.09421l.11786.02018a.44963.44963,0,0,0,.44944-.17687c.0182-.03941.03258-.11632-.07188-.18841a.47334.47334,0,0,0-.51746-.00769m-.18878-.55274.15907.08267a.196.196,0,0,0,.1332.11055.22066.22066,0,0,0,.18974-.04711c.0412-.03172.05079-.09228.02587-.173a.39353.39353,0,0,0-.32294-.27012c-.18782,0-.35743.02019-.35743.1615,0,.0769.08912.10574.17249.13554m-3.26676,1.35253a.46489.46489,0,0,0,.34114-.03845c.18974-.08652.29994-.24129.2549-.349l-.09008-.07979a.46048.46048,0,0,0-.33539.03846c-.16387.07209-.26736.19129-.26736.29607a.09813.09813,0,0,0,.01246.05287Z" fill="#fff"/></g></g></g></svg>