<svg id="Layer_1" xmlns="http://www.w3.org/2000/svg" viewBox="0 0 234.9 32" width="234.9" height="32"><path fill="#002D59" d="M75.8 1.3H69v30h19.7v-5.4H75.8V1.3zM49.5 31.2h6.8v-30h-6.8v30zM28.7 14.8l3.8 8.2 7.9-21.7h-7.1l-4.6 13.5zM7.1 1.3h-7l8 21.7 3.8-8.1L7.1 1.3zM19.8 1l-11 23.9 2.3 6.3h1.1l6.7-15c1.1-2.3 1.5-3.8 1.5-3.8s.4 1.4 1.4 3.7l6.7 15h1.1l2.3-6.3L20.8 1h-1zm205.6 12.3l-1.5-.7c-2-.9-3.8-1.8-3.8-3.7 0-1.5.9-2.5 2.7-2.5 1.8 0 3.4 1.1 4.1 2.6l5.1-3c-2.1-3.7-5.6-5.2-9.3-5.2-5.5 0-9 3.6-9.1 8.3-.1 5.1 3.6 7.5 8 9.4l1.5.7c2.8 1.2 4.2 2.2 4.1 4-.1 1.8-1.2 3-3.8 3-3 0-4.8-1.7-5.9-4l-5.4 3.1c1.5 3.4 5.5 6.5 11.3 6.5 5.8 0 10.4-3 10.6-8.6.2-4.8-3-7.8-8.6-9.9zm-38 4.1L172.9.9h-.9v30.3h6.6v-11c0-3.4-.2-5.1-.2-5.1s1.2 1.8 2.3 3.2l6.3 7.8h1l6.3-7.8c1.1-1.4 2.3-3.2 2.3-3.2s-.2 1.7-.2 5.1v11h6.6V.9h-.9l-14.7 16.5zM102.5 1.3h-6.8v30h19.7v-5.4h-12.9V1.3zm19.8 29.9h6.8v-30h-6.8v30zM152.4 1.2h-1L138 31.4h6.5l2-4.8h10.8l2 4.8h6.5L152.4 1.2zm-.5 20.2h-3.4l2.6-6.6c.5-1.2.8-2.3.8-2.3s.3 1.1.8 2.3l2.6 6.6h-3.4z"/></svg>