<?xml version="1.0" encoding="utf-8"?>
<!-- Generator: Adobe Illustrator 21.1.0, SVG Export Plug-In . SVG Version: 6.00 Build 0)  -->
<svg version="1.1" id="Layer_1" xmlns="http://www.w3.org/2000/svg" xmlns:xlink="http://www.w3.org/1999/xlink" x="0px" y="0px"
	 viewBox="0 0 548 180" style="enable-background:new 0 0 548 180;" xml:space="preserve">
<path d="M402.3,125.9c1.5-4.5,3.2-8.8,5-13c1.8,4.2,3.5,8.5,5,13H402.3z M418.5,127.2c-0.6-1.8-1.3-3.7-2-5.5
	c-0.7-1.9-1.4-3.6-2.1-5.3c-0.7-1.7-1.4-3.3-2.1-4.7c-0.7-1.5-1.3-2.7-1.9-3.8h-6.4c-0.6,1-1.2,2.3-1.9,3.8c-0.7,1.5-1.4,3-2.1,4.7
	c-0.7,1.7-1.4,3.5-2.1,5.3c-0.7,1.8-1.3,3.7-2,5.5c-0.6,1.8-1.2,3.6-1.7,5.2c-0.5,1.7-1,3.2-1.3,4.5h5.8c0.3-1.2,0.6-2.3,1-3.5
	c0.3-1.1,0.7-2.2,1-3.3h12.8c0.3,1.1,0.6,2.2,1,3.3c0.3,1.1,0.7,2.3,1,3.5h5.8c-0.3-1.4-0.8-2.9-1.3-4.5
	C419.7,130.8,419.1,129,418.5,127.2 M241.3,111.7v4.5l7.6-3.3V137h5.5v-29.1h-4.6L241.3,111.7z M262.9,111.7
	c-0.1,0.1-0.3,0.2-0.6,0.2h-1v-1.3h1c0.3,0,0.5,0,0.6,0.1c0.1,0.1,0.2,0.3,0.2,0.5C263,111.4,263,111.6,262.9,111.7 M264.1,111.2
	c0-0.5-0.1-0.9-0.4-1.1c-0.3-0.2-0.7-0.3-1.3-0.3h-2.1v4.6h1v-1.7h0.9l1,1.7h1.1l-1.1-1.8C263.8,112.4,264.1,111.9,264.1,111.2
	 M306.9,112.3h9.4V137h5.8v-24.7h9.4v-4.4h-24.6V112.3z M339.6,71.6c-2.6-3.3-5.4-6.5-10-11.6c-3.8-4.1-11.6-12.6-15.7-17h-10.8
	l-0.5,2.6c0,0,0.5,0.8,1,1.7c0.6,1,0.7,1.5,0.7,2.1c0,0,0,36.7,0,36.7l10.1,0V57.5c2,2.7,5.6,6.8,8,9.4C327.2,72,334.4,80,340,86.1
	h9.7V43l-10,0V71.6z M266.6,68.2h23.3v-7.7h-23.3V51H292v-8h-36.7v43.1h37.4v-8h-26.2V68.2z M229.6,63.1c-0.9,0.8-1.9,1.2-3.5,1.2
	h-15.3V51.2h12.1c3.6,0,5.5,0.4,6.8,1.5c1.3,1,1.9,2.6,1.9,4.8C231.6,59.9,231,61.7,229.6,63.1 M235.3,70.1
	c4.8-2.6,7.8-7.7,7.8-13.1c0-4.5-1.3-8-4-10.2c-3.2-2.6-7.5-3.7-14.9-3.7h-25.7l-0.5,2.6c0,0,0.5,0.8,1,1.7c0.8,1.4,0.7,1.8,0.7,2.7
	v36.1h11.2V72.3h13.9l7.5,13.8h12.3L235.3,70.1z M264.6,114.6c-0.6,0.5-1.4,0.8-2.5,0.8c-1.1,0-2-0.3-2.5-0.8
	c-0.6-0.5-0.8-1.4-0.8-2.6c0-0.6,0.1-1.1,0.2-1.5c0.1-0.4,0.3-0.8,0.6-1c0.3-0.3,0.6-0.5,1-0.6c0.4-0.1,0.9-0.2,1.5-0.2
	s1.1,0.1,1.5,0.2c0.4,0.1,0.8,0.3,1,0.6c0.3,0.3,0.5,0.6,0.6,1c0.1,0.4,0.2,0.9,0.2,1.5C265.4,113.2,265.2,114.1,264.6,114.6
	 M265.3,108.9c-0.3-0.3-0.8-0.6-1.3-0.7c-0.5-0.2-1.2-0.2-1.9-0.2c-0.7,0-1.4,0.1-1.9,0.2c-0.5,0.2-1,0.4-1.3,0.7
	c-0.3,0.3-0.6,0.8-0.7,1.3c-0.2,0.5-0.2,1.1-0.2,1.8c0,0.7,0.1,1.3,0.2,1.8c0.2,0.5,0.4,0.9,0.7,1.3c0.3,0.3,0.8,0.6,1.3,0.7
	c0.5,0.2,1.2,0.2,1.9,0.2c0.7,0,1.4-0.1,1.9-0.2c0.5-0.2,1-0.4,1.3-0.7c0.3-0.3,0.6-0.8,0.7-1.3c0.2-0.5,0.2-1.1,0.2-1.8
	c0-0.7-0.1-1.3-0.2-1.8C265.9,109.7,265.6,109.2,265.3,108.9 M358.5,124.3h12.1v-4.2h-12.1v-7.8h15.2v-4.4H351l-0.5,2.5l1.6,0.6
	c0.3,0.1,0.5,0.2,0.5,0.3c0.1,0.1,0.1,0.3,0.1,0.6v25h21.4v-4.4h-15.6V124.3z M460.3,69.7V43h-11v26.3c0,2.9-0.6,4.7-2,6
	c-1.8,1.7-4.8,2.5-9.1,2.5c-4.4,0-7.5-0.8-9.3-2.5c-1.4-1.3-2-3.1-2-6V43h-12.5l-0.5,2.6c0,0,0.5,0.8,1,1.7c0.6,1,0.7,1.5,0.7,2
	c0,0.1,0,20.4,0,20.4c0,11.3,7.6,17,22.3,17h0.3C453,86.7,460.3,81.2,460.3,69.7 M484,43h-11.2v43.1h35.6v-8H484V43z M503.6,43v8
	h16.6v35.1h11.2V51H548v-8H503.6z M383.7,50.8c2.4,5.4,5.3,12.3,8.3,19.7h-16.6C378.4,63.2,381.4,56.2,383.7,50.8 M372.3,78.6h23
	c1,2.5,1.9,5,2.8,7.5h11.2C402.4,67.9,395,51.8,390.7,43h-14c-4.2,8.8-11.6,24.9-18.5,43.1h11.2C370.4,83.6,371.3,81.1,372.3,78.6
	 M197.6,110.4l1.6,0.6c0.3,0.1,0.5,0.2,0.5,0.3c0.1,0.1,0.1,0.3,0.1,0.6V137h5.8v-11.4h12.1v-4.3h-12.1v-8.9h15.3v-4.4h-22.8
	L197.6,110.4z M96.6,95.2c-9.2,19.8-30.7,60.4-39.6,75.5c-0.9,1.5-1.9,2.3-2.6,2.3c-0.7,0-1.1-0.1-1.2-0.3c3-5.9,10.6-20.8,16-34.5
	c-8.1-14.9-15.1-28.9-21.8-43.1c-1.2-2.6-1.8-3.9-1.8-5.2v0v0h0l0,0l0,0h0c0-1.3,0.6-2.6,1.9-5.2C56.5,64.9,78,24.3,87,9.2
	c0.9-1.5,1.9-2.3,2.6-2.3c0.7,0,1.1,0.1,1.2,0.3c-3,5.9-10.6,20.8-16,34.5c8.1,14.9,15.1,28.9,21.8,43.1c1.2,2.6,1.8,3.9,1.8,5.2
	C98.4,91.3,97.8,92.6,96.6,95.2 M125.1,51.2C115.6,34.1,98.7,5.8,96.8,3.3c-1.9-2.5-3-2.7-4.7-2.8l-0.3,0C89.3,0.1,78.5,0,72,0
	c-5.6,0-17.4,0.1-20.2,0.4c-2.6,0.3-3.3,1.1-4.8,3c-2,2.7-19.2,31.7-28.1,47.8C12.4,62.8,2.2,83,1.3,85.2C0.4,87.1,0,88.7,0,90
	c0,1.4,0.4,3,1.3,4.8c2.1,4.7,8.6,17.5,17.6,34c9.4,17.1,26.4,45.4,28.2,47.9c1.9,2.6,3.2,2.7,4.9,2.9c2.6,0.2,13.9,0.4,20,0.4
	c6.5,0,18.3-0.3,20-0.4c1.6-0.1,3-0.3,4.9-2.9c1.7-2.4,20-32.9,28.2-47.9c7.9-14.4,16.6-31.7,17.6-34c1.1-2.5,1.3-3.8,1.3-4.8
	c0-0.8-0.2-2.5-1.3-4.8C140.1,79.7,132,63.7,125.1,51.2 M457.7,123.7l-8.9-14.8c-0.3-0.4-0.5-0.7-0.6-0.8c-0.1-0.1-0.4-0.2-0.9-0.2
	H441l-0.5,2.5l1.6,0.6c0.3,0.1,0.5,0.2,0.5,0.3c0.1,0.1,0.1,0.3,0.1,0.6v25h5.3v-20.4l7,11.5c0.2,0.3,0.3,0.5,0.4,0.7
	c0.1,0.1,0.2,0.3,0.3,0.3c0.1,0.1,0.3,0.1,0.5,0.1c0.2,0,0.5,0,0.9,0h2.5l7.7-12.6V137h5.3v-29.1h-5.5L457.7,123.7z"/>
</svg>
