<?xml version="1.0" encoding="utf-8"?>
<!-- Generator: Adobe Illustrator 23.1.1, SVG Export Plug-In . SVG Version: 6.00 Build 0)  -->
<svg version="1.1" id="Layer_1" xmlns="http://www.w3.org/2000/svg" xmlns:xlink="http://www.w3.org/1999/xlink" x="0px" y="0px"
	 viewBox="0 0 700 900" style="enable-background:new 0 0 700 900;" xml:space="preserve">
<style type="text/css">
	.st0{fill:#FB8703;}
	.st1{font-family:'ArialMT';}
	.st2{font-size:12px;}
	.st3{fill:#2ED2BE;}
	.st4{fill:#DC0300;}
	.st5{fill:#9B0502;}
	.st6{fill:#FFFFFF;}
	.st7{fill:#2086C0;}
	.st8{fill:none;stroke:#000000;}
	.st9{font-family:'Helvetica';}
	.st10{font-size:10px;}
</style>
<g transform="translate(150,20)">
	<g>
		<rect y="23.4" class="st0" width="496.9" height="54.5"/>
		<text transform="matrix(1 0 0 1 446.1758 54.8195)" class="st1 st2">93.75%</text>
	</g>
	<g>
		<rect y="101.2" class="st3" width="479.5" height="54.5"/>
		<text transform="matrix(1 0 0 1 428.8246 132.6956)" class="st1 st2">90.48%</text>
	</g>
	<g>
		<rect y="179.1" class="st4" width="467.6" height="54.5"/>
		<text transform="matrix(1 0 0 1 416.9479 210.5717)" class="st1 st2">88.24%</text>
	</g>
	<g>
		<rect y="257" class="st4" width="463.8" height="54.5"/>
		<text transform="matrix(1 0 0 1 413.0508 288.4478)" class="st1 st2">87.50%</text>
	</g>
	<g>
		<rect y="334.9" class="st5" width="454.3" height="54.5"/>
		<text transform="matrix(1 0 0 1 403.5865 366.3239)" class="st6 st1 st2">85.71%</text>
	</g>
	<g>
		<rect y="412.7" class="st3" width="446.3" height="54.5"/>
		<text transform="matrix(1 0 0 1 395.6166 444.2)" class="st1 st2">84.21%</text>
	</g>
	<g>
		<rect y="490.6" class="st3" width="446.3" height="54.5"/>
		<text transform="matrix(1 0 0 1 395.6166 522.0761)" class="st1 st2">84.21%</text>
	</g>
	<g>
		<rect y="568.5" class="st4" width="441.7" height="54.5"/>
		<text transform="matrix(1 0 0 1 390.9674 599.9522)" class="st1 st2">83.33%</text>
	</g>
	<g>
		<rect y="646.4" class="st4" width="412.2" height="54.5"/>
		<text transform="matrix(1 0 0 1 361.523 677.8283)" class="st1 st2">77.78%</text>
	</g>
	<g>
		<rect y="724.2" class="st0" width="397.5" height="54.5"/>
		<text transform="matrix(1 0 0 1 346.8008 755.7044)" class="st1 st2">75.00%</text>
	</g>
	<g>
		<rect y="802.1" class="st7" width="397.5" height="54.5"/>
		<text transform="matrix(1 0 0 1 346.8008 833.5806)" class="st1 st2">75.00%</text>
	</g>
	<g>
		<path class="st8" d="M-6,0.5h6.5v880H-6"/>
		<g transform="translate(0,50.6194690265487)">
			<line class="st8" x1="0" y1="0" x2="-6" y2="0"/>
			<text transform="matrix(1 0 0 1 -72.9307 3.2)" class="st9 st10">McLaren 1988</text>
		</g>
		<g transform="translate(0,128.49557522123897)">
			<line class="st8" x1="0" y1="0" x2="-6" y2="0"/>
			<text transform="matrix(1 0 0 1 -77.9307 3.2)" class="st9 st10">Mercedes 2016</text>
		</g>
		<g transform="translate(0,206.37168141592923)">
			<line class="st8" x1="0" y1="0" x2="-6" y2="0"/>
			<text transform="matrix(1 0 0 1 -63.4678 3.2)" class="st9 st10">Ferrari 2002</text>
		</g>
		<g transform="translate(0,284.24778761061947)">
			<line class="st8" x1="0" y1="0" x2="-6" y2="0"/>
			<text transform="matrix(1 0 0 1 -63.4678 3.2)" class="st9 st10">Ferrari 1952</text>
		</g>
		<g transform="translate(0,362.12389380530976)">
			<line class="st8" x1="0" y1="0" x2="-6" y2="0"/>
			<text transform="matrix(1 0 0 1 -86.2705 3.2)" class="st9 st10">Alfa Romeo 1950</text>
		</g>
		<g transform="translate(0,440)">
			<line class="st8" x1="0" y1="0" x2="-6" y2="0"/>
			<text transform="matrix(1 0 0 1 -77.9307 3.2)" class="st9 st10">Mercedes 2014</text>
		</g>
		<g transform="translate(0,517.8761061946902)">
			<line class="st8" x1="0" y1="0" x2="-6" y2="0"/>
			<text transform="matrix(1 0 0 1 -77.9307 3.2)" class="st9 st10">Mercedes 2015</text>
		</g>
		<g transform="translate(0,595.7522123893806)">
			<line class="st8" x1="0" y1="0" x2="-6" y2="0"/>
			<text transform="matrix(1 0 0 1 -63.4678 3.2)" class="st9 st10">Ferrari 2004</text>
		</g>
		<g transform="translate(0,673.6283185840708)">
			<line class="st8" x1="0" y1="0" x2="-6" y2="0"/>
			<text transform="matrix(1 0 0 1 -63.4678 3.2)" class="st9 st10">Ferrari 1953</text>
		</g>
		<g transform="translate(0,751.5044247787611)">
			<line class="st8" x1="0" y1="0" x2="-6" y2="0"/>
			<text transform="matrix(1 0 0 1 -72.9307 3.2)" class="st9 st10">McLaren 1984</text>
		</g>
		<g transform="translate(0,829.3805309734513)">
			<line class="st8" x1="0" y1="0" x2="-6" y2="0"/>
			<text transform="matrix(1 0 0 1 -71.2412 3.2)" class="st9 st10">Williams 1996</text>
		</g>
	</g>
	<text transform="matrix(1 0 0 1 222.9766 6.6666)" class="st1 st2">Win percentage</text>
</g>
</svg>
