<?xml version="1.0" encoding="UTF-8" standalone="no"?>
<!-- Created with Inkscape (http://www.inkscape.org/) -->

<svg
   xmlns:dc="http://purl.org/dc/elements/1.1/"
   xmlns:cc="http://creativecommons.org/ns#"
   xmlns:rdf="http://www.w3.org/1999/02/22-rdf-syntax-ns#"
   xmlns:svg="http://www.w3.org/2000/svg"
   xmlns="http://www.w3.org/2000/svg"
   xmlns:sodipodi="http://sodipodi.sourceforge.net/DTD/sodipodi-0.dtd"
   xmlns:inkscape="http://www.inkscape.org/namespaces/inkscape"
   width="469.99875"
   height="78.213753"
   id="svg2"
   version="1.1"
   inkscape:version="0.48.0 r9654"
   sodipodi:docname="New document 1">
  <defs
     id="defs4">
    <clipPath
       id="clipPath2999"
       clipPathUnits="userSpaceOnUse">
      <path
         id="path3001"
         d="m 0,841.89 595.276,0 L 595.276,0 0,0 0,841.89 z"
         inkscape:connector-curvature="0" />
    </clipPath>
  </defs>
  <sodipodi:namedview
     id="base"
     pagecolor="#ffffff"
     bordercolor="#666666"
     borderopacity="1.0"
     inkscape:pageopacity="0.0"
     inkscape:pageshadow="2"
     inkscape:zoom="0.98994949"
     inkscape:cx="48.296281"
     inkscape:cy="82.283074"
     inkscape:document-units="px"
     inkscape:current-layer="g2997"
     showgrid="false"
     fit-margin-top="10"
     fit-margin-left="10"
     fit-margin-right="10"
     fit-margin-bottom="10"
     inkscape:window-width="1858"
     inkscape:window-height="1058"
     inkscape:window-x="54"
     inkscape:window-y="-8"
     inkscape:window-maximized="1" />
  <metadata
     id="metadata7">
    <rdf:RDF>
      <cc:Work
         rdf:about="">
        <dc:format>image/svg+xml</dc:format>
        <dc:type
           rdf:resource="http://purl.org/dc/dcmitype/StillImage" />
        <dc:title></dc:title>
      </cc:Work>
    </rdf:RDF>
  </metadata>
  <g
     inkscape:label="Layer 1"
     inkscape:groupmode="layer"
     id="layer1"
     transform="translate(-140.00062,-493.25527)">
    <g
       transform="matrix(1.25,0,0,-1.25,2.9534996,1103.0634)"
       inkscape:label="Brawn_GP"
       id="g2993">
      <g
         id="g2995">
        <g
           clip-path="url(#clipPath2999)"
           id="g2997">
          <g
             transform="translate(140.3677,444.1055)"
             id="g3003">
            <path
               id="path3005"
               style="fill:#000000;fill-opacity:1;fill-rule:nonzero;stroke:none"
               d="m 0,0 -6.907,0 0,8.574 5.029,0 C 3.151,8.574 6.839,8.318 6.839,4.256 6.839,0.776 3.889,0 0,0 m -6.907,24.758 5.566,0 c 3.351,0 6.436,-0.064 6.436,-3.675 0,-2.707 -2.279,-4.062 -5.431,-4.062 l -6.571,0 0,7.737 z m 20.451,-10.96 c 3.084,1.87 6.303,5.351 6.303,10.122 0,9.22 -8.65,11.669 -19.512,11.669 l -23.065,0 0,-46.419 23.534,0 c 12.538,0 20.786,3.609 20.786,13.99 0,5.028 -2.816,9.349 -8.046,10.638 m 93.38,-8.832 -10.662,0 10.662,15.315 0,-15.315 z m -60.771,10.573 -6.236,0 0,9.219 7.376,0 c 3.687,0 6.37,-1.548 6.37,-4.835 0,-3.224 -2.616,-4.384 -7.51,-4.384 m 23.87,-25.66 0,0.707 c -1.878,0 -1.676,2.064 -1.676,8.125 0,9.35 -3.084,10.508 -8.18,12.314 5.632,1.484 8.113,5.996 8.113,11.348 0,9.026 -5.298,13.216 -21.389,13.216 l -22.799,0 0,-46.419 15.825,0 0,16.182 4.828,0 c 7.376,0 8.448,-1.998 8.448,-8.059 0,-4.125 0.402,-7.093 0.805,-8.123 l 31.709,0 4.093,6.125 17.124,0 0,-6.125 12.574,0 0.039,46.419 -14.299,0 -35.215,-45.71 z m 115.027,45.71 -16.325,-25.96 0,25.96 -14.695,0 -17.592,-29.095 0.927,29.095 -13.954,0 -0.006,-46.419 14.738,0 18.042,25.594 0,-25.594 13.063,0 31.264,46.419 -15.462,0 z m 50.302,0 -16.315,-24.745 0,24.745 -14.533,0 -31.489,-46.419 15.755,0 17.009,25.272 0,-25.272 13.839,0 31.49,46.419 -15.756,0 z m 90.59,-8.65 c 0,0.001 -2.231,-3.198 -2.231,-3.198 -1.51,-2.167 -5.289,-4.139 -7.93,-4.139 l -12.464,0 6.403,9.567 15.057,0 c 1.245,0 1.893,-1.182 1.165,-2.23 m 3.097,8.802 -65.9,0 c -4.833,0 -10.56,-2.989 -13.322,-6.954 L 242.274,17.966 C 238.945,13.19 240.705,5.041 248.486,5.041 l 20.329,0 c 5.88,0 12.811,3.73 16.226,8.832 l 5.73,8.563 -30.66,0 -4.581,-6.573 20.134,0 c -2.108,-2.513 -5.004,-4.25 -8.101,-4.25 l -13.33,0 c -1.824,0 -3.172,2.58 -2.128,4.077 l 6.511,9.34 c 1.509,2.167 5.289,4.139 7.928,4.139 l 31.862,0 -16.15,-24.128 11.315,0 2.578,3.85 c 1.509,2.166 3.347,4.138 7.312,4.138 l 15.725,0 c 4.834,0 10.562,2.99 13.323,6.955 l 2.749,4.109 c 4.288,6.407 1.49,11.648 -6.219,11.648"
               inkscape:connector-curvature="0" />
          </g>
          <g
             transform="translate(470.1074,469.5835)"
             id="g3007">
            <path
               id="path3009"
               style="fill:#fff200;fill-opacity:1;fill-rule:nonzero;stroke:none"
               d="m 0,0 -0.001,-0.002 -2.228,-3.196 c -1.976,-2.837 -6.568,-5.235 -10.028,-5.235 l -15.108,0 c -3.227,0 -6.936,-2.076 -6.936,-2.076 l 11.214,16.757 19.826,0 c 2.08,0 3.614,-0.649 4.206,-1.781 C 1.536,3.336 1.189,1.708 0,0 M 2.237,5.143 C 1.375,6.796 -0.577,7.707 -3.261,7.707 l -61.637,0 c -3.938,0 -8.974,-2.628 -11.225,-5.859 l -6.591,-9.456 c -1.849,-2.657 -2.267,-5.135 -1.207,-7.167 1.044,-2.002 3.429,-3.106 6.711,-3.106 l 14.582,0 c 5.102,0 11.164,3.309 14.101,7.697 l 3.067,4.585 -25.568,0 -1.018,-1.46 23.855,0 -1.549,-2.313 c -2.69,-4.019 -8.232,-7.049 -12.888,-7.049 l -14.582,0 c -2.673,0 -4.646,0.845 -5.418,2.322 -0.78,1.498 -0.386,3.508 1.113,5.657 l 6.591,9.455 c 1.976,2.837 6.568,5.235 10.026,5.235 l 40.054,0 -17.651,-26.373 1.757,0 c 0.53,0.792 3.342,4.993 3.345,4.999 1.977,2.836 6.568,5.234 10.028,5.234 l 15.108,0 c 3.94,0 8.975,2.628 11.226,5.859 l 2.229,3.199 C 2.731,1.367 3.101,3.49 2.237,5.143"
               inkscape:connector-curvature="0" />
          </g>
        </g>
      </g>
    </g>
  </g>
</svg>
