<?xml version="1.0" encoding="utf-8"?>
<!-- Generator: Adobe Illustrator 22.0.1, SVG Export Plug-In . SVG Version: 6.00 Build 0)  -->
<svg version="1.1" id="Logo" xmlns="http://www.w3.org/2000/svg" xmlns:xlink="http://www.w3.org/1999/xlink" x="0px" y="0px"
	 viewBox="0 0 280 128" width="468" height="214"
 style="enable-background:new 0 0 280 128;" xml:space="preserve">
<style type="text/css">
	.st0{fill:url(#SVGID_1_);}
	.st1{fill:url(#SVGID_2_);}
	.st2{clip-path:url(#SVGID_4_);fill:none;}
	.st3{fill:url(#SVGID_5_);}
	.st4{clip-path:url(#SVGID_7_);fill:url(#SVGID_8_);}
	.st5{fill:#EA1C2D;}
	.st6{fill:#FCD700;}
</style>
<g>
	<g>
		
			<linearGradient id="SVGID_1_" gradientUnits="userSpaceOnUse" x1="139.7" y1="23.6253" x2="139.7" y2="4.7034" gradientTransform="matrix(1 0 0 -1 0 128)">
			<stop  offset="0" style="stop-color:#838587"/>
			<stop  offset="0.5" style="stop-color:#909295"/>
			<stop  offset="0.6981" style="stop-color:#797A7D"/>
			<stop  offset="1" style="stop-color:#4E4F51"/>
		</linearGradient>
		<path class="st0" d="M29.5,110.3c0-3.4-2.4-5.5-6.4-5.6H7.5v18.1h2.6v-6.6h12.5c2.3,0,3.6,1.1,3.6,3v3.6h2.7v-3.6
			c0-1.9-1-3.4-2.7-4.2C28.2,114.3,29.5,112.6,29.5,110.3z M23,113.9H10.2v-6.8H23c3.5,0,3.8,2.6,3.8,3.4S26.5,113.9,23,113.9z
			 M75.4,108.3c-1.3-2.7-2.9-3.8-5.3-3.8s-4,1.1-5.3,3.8l-6.9,14.1l-0.2,0.4h2.8l0.1-0.2l2.4-5h14.2l2.4,5l0.1,0.2h2.8l-0.2-0.4
			L75.4,108.3z M64.3,115.3l3.1-6.3c0.7-1.5,1.5-2.1,2.8-2.1c1.2,0,2,0.6,2.8,2.1l3.1,6.3H64.3z M110.1,113.8c0,6.1,2.7,9,8.4,9.1
			h14.2v-2.6h-14c-4.3,0-5.9-1.8-5.9-6.5s1.6-6.5,5.9-6.5h14v-2.6h-14.2C112.6,104.8,110.1,107.6,110.1,113.8z M162.4,122.9h2.6
			v-18.1h-2.6V122.9z M216.4,120.3c-2.5,0-3.1-0.8-7.6-6.9l-0.2-0.3c-4.9-6.5-6.2-8.3-10.5-8.3h-2.2v18.1h2.6v-15.5
			c2.4,0,2.9,0.8,7.4,6.6l0.5,0.7c4.9,6.4,6.3,8.2,10.4,8.2h2.2v-18.1h-2.6L216.4,120.3L216.4,120.3z M269.2,113.5v6.8h-11.5
			c-4.3,0-5.9-1.8-5.9-6.5s1.6-6.5,5.9-6.5h13.9v-2.6h-14.1c-5.7,0.1-8.4,2.9-8.4,9s2.7,9,8.4,9.1h14.3v-9.3H269.2z"/>
	</g>
	<g>
		<g>
			
				<linearGradient id="SVGID_2_" gradientUnits="userSpaceOnUse" x1="7.55" y1="85.65" x2="271.95" y2="85.65" gradientTransform="matrix(1 0 0 -1 0 128)">
				<stop  offset="0" style="stop-color:#A6A8AB"/>
				<stop  offset="0.5" style="stop-color:#58595B"/>
				<stop  offset="0.6713" style="stop-color:#707173"/>
				<stop  offset="1" style="stop-color:#A6A8AB"/>
			</linearGradient>
			<path id="SVGID_10_" class="st1" d="M75.3,41h-2.7c-29.6,0-65.1,0.6-65.1,1.1s29.3,1.6,65.1,1.6h6h125.5h2.7
				c29.6,0,65.1-0.6,65.1-1.1S242.6,41,206.8,41h-6H75.3z"/>
		</g>
		<g>
			<defs>
				<path id="SVGID_3_" d="M75.3,41h-2.7c-29.6,0-65.1,0.6-65.1,1.1s29.3,1.6,65.1,1.6h6h125.5h2.7c29.6,0,65.1-0.6,65.1-1.1
					S242.6,41,206.8,41h-6H75.3z"/>
			</defs>
			<clipPath id="SVGID_4_">
				<use xlink:href="#SVGID_3_"  style="overflow:visible;"/>
			</clipPath>
			<rect x="7.5" y="41" class="st2" width="264.3" height="2.7"/>
		</g>
	</g>
	<g>
		<g>
			<g>
				
					<linearGradient id="SVGID_5_" gradientUnits="userSpaceOnUse" x1="139.75" y1="122.3049" x2="139.75" y2="98.0349" gradientTransform="matrix(1 0 0 -1 0 128)">
					<stop  offset="0" style="stop-color:#838587"/>
					<stop  offset="0.5" style="stop-color:#909295"/>
					<stop  offset="0.6981" style="stop-color:#797A7D"/>
					<stop  offset="1" style="stop-color:#4E4F51"/>
				</linearGradient>
				<path id="SVGID_13_" class="st3" d="M61.2,6.3c-1.4,0-2.9,0.1-4.4,0.1s-3,0-4.4-0.1c-1.4,0-2.9-0.1-4.4-0.1
					c0.1,0.4,0.2,0.7,0.2,1c0,0.3-0.1,0.7-0.2,1.1c0.5-0.1,1-0.1,1.6-0.2c0.6,0,1.3-0.1,1.9-0.1c0.6,0,1.3-0.1,1.9-0.1s1.3,0,1.9,0
					c0.1,2.3,0.1,4.7,0.1,7v5.9c0,1.5,0,3-0.1,4.4c-0.1,1.5-0.1,2.9-0.2,4.3c0.5,0,1.1-0.1,1.7-0.1s1.1,0,1.7,0.1
					c-0.1-1.4-0.1-2.8-0.2-4.3c-0.1-1.4-0.1-2.9-0.1-4.4V15c0-2.4,0-4.7,0.1-7c0.6,0,1.2,0,1.9,0c0.6,0,1.3,0,1.9,0.1
					c0.6,0,1.3,0.1,1.9,0.1s1.1,0.1,1.6,0.2c-0.1-0.4-0.2-0.8-0.2-1.1c0-0.3,0.1-0.6,0.2-1.1C64.2,6.2,62.7,6.2,61.2,6.3 M200.4,17
					c-0.4,0-0.7-0.1-1-0.1V15c0-1.2,0-2.5,0.1-3.7c0-1.2,0.1-2.5,0.1-3.7c0.4,0,0.8-0.1,1.3-0.1s1.2-0.1,2-0.1
					c0.6,0,1.2,0.1,1.8,0.2s1.2,0.4,1.7,0.7s0.9,0.8,1.3,1.4c0.3,0.6,0.5,1.3,0.5,2.2c0,1-0.2,1.9-0.6,2.5c-0.4,0.7-0.9,1.2-1.6,1.6
					c-0.6,0.4-1.3,0.7-2.1,0.8c-0.8,0.2-1.5,0.2-2.2,0.2C201.1,17.1,200.8,17.1,200.4,17 M202.1,6.2c-0.6,0.1-1.3,0.1-1.9,0.1
					c-0.7,0-1.3,0-1.9-0.1c-0.6,0-1.3-0.1-1.9-0.1c0.1,1.5,0.1,3,0.2,4.4c0.1,1.4,0.1,2.9,0.1,4.4v5.9c0,1.5,0,3-0.1,4.4
					c-0.1,1.5-0.1,2.9-0.2,4.3c0.5,0,1.1-0.1,1.7-0.1c0.6,0,1.1,0,1.7,0.1c-0.1-1.4-0.1-2.8-0.2-4.3c-0.1-1.5-0.1-2.9-0.1-4.4v-2.5
					h1.3c0.7,0.7,1.5,1.7,2.4,2.7c0.9,1.1,1.7,2.2,2.6,3.3c0.8,1.1,1.6,2.1,2.3,3.1s1.2,1.7,1.5,2.1c0.3,0,0.6-0.1,1-0.1h1h1
					c0.3,0,0.7,0,1,0.1c-0.3-0.3-0.7-0.8-1.3-1.4c-0.5-0.6-1.1-1.3-1.7-2c-0.6-0.7-1.2-1.5-1.8-2.3s-1.2-1.6-1.8-2.3
					c-0.6-0.7-1.1-1.4-1.6-2s-0.9-1.1-1.1-1.4c0.7-0.1,1.4-0.3,2.2-0.6c0.8-0.3,1.6-0.7,2.3-1.2s1.3-1.2,1.8-1.9
					c0.5-0.8,0.7-1.7,0.7-2.8c0-1-0.2-1.9-0.6-2.6c-0.4-0.7-0.9-1.2-1.5-1.7c-0.6-0.4-1.4-0.7-2.3-0.9c-0.9-0.2-1.8-0.3-2.7-0.3
					C203.4,6.1,202.8,6.2,202.1,6.2 M229.5,6.3c-1.4,0-2.9,0.1-4.4,0.1s-3,0-4.4-0.1c-1.4,0-2.9-0.1-4.4-0.1
					c0.1,0.5,0.2,0.8,0.2,1.1c0,0.3-0.1,0.7-0.2,1.1c0.5-0.1,1-0.1,1.6-0.2c0.6,0,1.2-0.1,1.9-0.1c0.6,0,1.3-0.1,1.9-0.1
					c0.6,0,1.3,0,1.9,0c0.1,2.3,0.1,4.7,0.1,7v5.9c0,1.5,0,3-0.1,4.4c-0.1,1.5-0.1,2.9-0.2,4.3c0.5,0,1.1-0.1,1.7-0.1
					c0.6,0,1.1,0,1.7,0.1c-0.1-1.4-0.1-2.8-0.2-4.3s-0.1-2.9-0.1-4.4V15c0-2.4,0-4.7,0.1-7c0.6,0,1.2,0,1.9,0c0.6,0,1.3,0,1.9,0.1
					c0.6,0,1.3,0.1,1.9,0.1s1.1,0.1,1.6,0.2c-0.1-0.4-0.2-0.8-0.2-1.1c0-0.3,0.1-0.6,0.2-1.1C232.4,6.2,230.9,6.2,229.5,6.3
					 M242.2,6.3c-0.3,0-0.5,0.1-0.8,0.1s-0.5,0-0.8-0.1c-0.3,0-0.6-0.1-0.9-0.1c0.1,1.5,0.1,3,0.2,4.4s0.1,2.9,0.1,4.4v5.9
					c0,1.5,0,3-0.1,4.4c-0.1,1.5-0.1,2.9-0.2,4.3c0.5,0,1.1-0.1,1.7-0.1s1.1,0,1.7,0.1c-0.1-1.4-0.1-2.8-0.2-4.3s-0.1-2.9-0.1-4.4
					V15c0-1.5,0-3,0.1-4.4s0.1-2.9,0.2-4.4C242.9,6.2,242.5,6.2,242.2,6.3 M15.8,19c-0.6,0-1.2,0-1.8,0l3.7-8.6l3.8,8.6
					c-0.6,0-1.3,0-1.9,0c-0.6,0-1.3,0-1.9,0C17.2,19,16.5,19,15.8,19 M18.2,5.7c-1.8,4.1-3.5,8.1-5.3,12c-1.7,3.9-3.5,7.9-5.4,11.8
					c0.4,0,0.8-0.1,1.3-0.1s0.9,0,1.3,0.1c0.3-1,0.7-2.4,1.3-4s1.2-3.3,2-5.1c0.7,0,1.4,0,2.1-0.1c0.7,0,1.4,0,2.1,0
					c0.7,0,1.5,0,2.2,0s1.5,0,2.2,0.1c0.3,0.7,0.6,1.5,1,2.4c0.3,0.8,0.7,1.6,1,2.5c0.3,0.8,0.6,1.6,0.9,2.3
					c0.3,0.7,0.5,1.4,0.6,1.9c0.3,0,0.6-0.1,0.9-0.1h0.8h0.9c0.3,0,0.6,0,0.9,0.1c-0.3-0.5-0.7-1.3-1.1-2.4c-0.5-1-1-2.2-1.6-3.6
					c-0.6-1.3-1.2-2.8-1.9-4.3c-0.7-1.5-1.3-3.1-2-4.7c-0.5-1.5-1.2-3-1.8-4.5s-1.2-3-1.8-4.3H18.2z M36.4,6.2
					c-0.9,0.3-1.7,0.8-2.3,1.3c-0.6,0.6-1.1,1.2-1.5,2c-0.3,0.8-0.5,1.7-0.5,2.6c0,1.3,0.3,2.4,0.8,3.2s1.2,1.4,2,2
					c0.8,0.5,1.7,0.9,2.6,1.3c0.9,0.3,1.8,0.7,2.6,1.1c0.8,0.4,1.5,0.9,2,1.5s0.8,1.4,0.8,2.5c0,0.7-0.1,1.3-0.3,1.9
					c-0.2,0.6-0.6,1.1-1,1.6c-0.4,0.4-0.9,0.8-1.5,1.1c-0.6,0.3-1.3,0.4-2,0.4s-1.4-0.1-2-0.3c-0.6-0.2-1.1-0.5-1.5-0.8
					s-0.8-0.7-1.1-1.1s-0.6-0.8-0.7-1.2h-0.4c-0.1,0.7-0.1,1.2-0.2,1.6c-0.1,0.4-0.2,0.9-0.4,1.4c0.6,0.5,1.3,0.9,2.2,1.3
					c0.9,0.4,2,0.6,3.4,0.6c1.3,0,2.5-0.2,3.5-0.6s1.9-0.9,2.6-1.6s1.3-1.5,1.6-2.4c0.4-0.9,0.6-1.9,0.6-3c0-1.2-0.3-2.2-0.8-3
					c-0.5-0.7-1.2-1.4-2-1.8c-0.8-0.5-1.7-0.9-2.6-1.2c-0.9-0.3-1.8-0.7-2.6-1.1c-0.8-0.4-1.5-0.9-2-1.5s-0.8-1.5-0.8-2.5
					c0-0.6,0.1-1.2,0.3-1.7c0.2-0.5,0.5-1,0.9-1.3c0.4-0.4,0.9-0.7,1.4-0.9c0.4-0.5,1-0.6,1.6-0.6s1.2,0.1,1.6,0.3
					c0.5,0.2,0.8,0.5,1.2,0.8c0.3,0.3,0.6,0.7,0.8,1c0.2,0.4,0.3,0.7,0.5,1h0.4c0.1-0.7,0.3-1.2,0.4-1.6c0.1-0.4,0.3-0.8,0.5-1.2
					c-0.7-0.5-1.4-0.9-2.2-1.2c-0.8-0.3-1.7-0.4-2.8-0.4C38.3,5.7,37.3,5.9,36.4,6.2 M75.8,28.2c-1.1-0.4-2.1-1.1-3-2s-1.5-2-2-3.4
					s-0.7-3-0.7-4.9s0.2-3.5,0.7-4.9s1.1-2.5,2-3.4s1.8-1.6,3-2C76.9,7.2,78.2,7,79.5,7c1.3,0,2.6,0.2,3.7,0.6c1.1,0.4,2.1,1.1,3,2
					s1.5,2,2,3.4s0.7,3,0.7,4.9s-0.2,3.5-0.7,4.9s-1.1,2.5-2,3.4s-1.9,1.6-3,2s-2.4,0.6-3.7,0.6C78.2,28.8,76.9,28.6,75.8,28.2
					 M74.4,6.5c-1.6,0.5-2.9,1.3-4,2.4c-1.1,1-2,2.3-2.6,3.8s-0.9,3.2-0.9,5.2c0,1.9,0.3,3.6,0.9,5.2c0.6,1.5,1.5,2.8,2.6,3.8
					s2.5,1.8,4,2.3c1.6,0.5,3.3,0.8,5.1,0.8c1.9,0,3.6-0.3,5.2-0.8s2.9-1.3,4-2.3s2-2.3,2.6-3.8s0.9-3.2,0.9-5.2
					c0-1.9-0.3-3.6-0.9-5.2c-0.6-1.5-1.5-2.8-2.6-3.8s-2.5-1.8-4-2.4c-1.6-0.5-3.3-0.8-5.2-0.8C77.7,5.7,75.9,6,74.4,6.5 M97.8,5.7
					c0,0.8,0.1,1.9,0.1,3.5s0,3.4,0,5.6c0,0.7,0,1.6,0,2.6s-0.1,1.9-0.1,2.9s-0.1,2-0.1,3c-0.1,1-0.1,1.9-0.2,2.8
					c0,0.9-0.1,1.6-0.2,2.2s-0.1,1-0.2,1.3c0.4,0,0.8-0.1,1.3-0.1c0.4,0,0.8,0,1.2,0.1c0-0.2,0-0.5-0.1-1c0-0.5,0-1.1-0.1-1.8
					c0-0.7,0-1.4-0.1-2.2c0-0.8,0-1.6-0.1-2.3c0-0.8,0-1.5,0-2.2s0-1.3,0-1.8c0-1.8,0-3.3,0-4.4s0-1.9,0.1-2.6
					c3,3.1,5.9,6.3,8.9,9.4c2.9,3.2,5.7,6.3,8.3,9.3h0.5v-1.1c0-0.5,0-1.2,0-1.9c0-0.7,0-1.5,0-2.4s0-1.7,0-2.5s0-1.6,0-2.4v-2
					c0-0.7,0-1.5,0.1-2.6c0-1.1,0.1-2.2,0.2-3.3c0.1-1.1,0.1-2.2,0.2-3.2c0.1-1,0.1-1.7,0.2-2.2c-0.5,0.1-0.8,0.2-1.1,0.2
					s-0.7-0.1-1.2-0.2c0.1,2,0.2,4.1,0.2,6.4s0.1,4.6,0.1,7v4.6c-1-1-2.3-2.3-3.7-3.8s-2.9-3.1-4.4-4.7c-1.6-1.7-3.1-3.4-4.7-5.1
					c-1.6-1.7-3.1-3.3-4.4-4.8h-0.7V5.7z M161.2,5.7c-0.6,1-1.2,2.2-1.8,3.4c-0.7,1.2-1.3,2.4-2,3.7c-0.7,1.2-1.3,2.5-2,3.7
					c-0.6,1.2-1.3,2.3-1.8,3.4c-0.6,1-1.1,2-1.5,2.8s-0.8,1.4-1,1.9c-1.7-3.2-3.4-6.3-5-9.4c-1.6-3-3.2-6.2-4.7-9.4h-0.6
					c-0.2,1.8-0.4,3.7-0.6,5.7c-0.3,2-0.5,4-0.8,6.1s-0.6,4.1-0.9,6.2c-0.3,2-0.6,4-0.9,5.8c0.4,0,0.8-0.1,1.2-0.1s0.8,0,1.2,0.1
					c0-0.9,0.1-2.1,0.2-3.5c0.1-1.4,0.2-2.9,0.4-4.5s0.3-3.2,0.5-4.9c0.2-1.6,0.4-3.2,0.5-4.6h0.1c1.5,3,3,5.9,4.5,8.8
					s2.9,5.7,4.3,8.6h0.3c1.4-3.1,2.8-6,4.3-8.9c1.5-2.8,3-5.7,4.6-8.5h0.1c0.4,2.9,0.7,5.8,0.9,8.7c0.2,2.8,0.5,5.8,0.7,8.8
					c0.3,0,0.5-0.1,0.8-0.1h0.8h0.8c0.3,0,0.5,0,0.8,0.1c-0.3-1.9-0.5-3.8-0.7-5.7c-0.2-1.9-0.5-3.9-0.7-5.8c-0.2-2-0.4-4-0.7-6
					c-0.2-2-0.4-4.1-0.7-6.3L161.2,5.7L161.2,5.7z M177.1,19c-0.6,0-1.2,0-1.8,0l3.7-8.6l3.8,8.6c-0.6,0-1.3,0-1.9,0
					c-0.6,0-1.3,0-1.9,0C178.4,19,177.9,19,177.1,19 M179.6,5.7c-1.8,4.1-3.5,8.1-5.3,12c-1.7,3.9-3.5,7.9-5.4,11.8
					c0.4,0,0.8-0.1,1.3-0.1s0.9,0,1.3,0.1c0.3-1,0.7-2.4,1.3-4s1.2-3.3,2-5.1c0.7,0,1.4,0,2.1-0.1c0.7,0,1.4,0,2.1,0
					c0.7,0,1.5,0,2.2,0s1.5,0,2.2,0.1c0.3,0.7,0.6,1.5,1,2.4c0.3,0.8,0.7,1.6,1,2.5c0.3,0.8,0.6,1.6,0.9,2.3
					c0.3,0.7,0.5,1.4,0.6,1.9c0.3,0,0.6-0.1,0.9-0.1h0.9h0.9c0.3,0,0.6,0,0.9,0.1c-0.3-0.5-0.7-1.3-1.1-2.4c-0.5-1-1-2.2-1.6-3.6
					c-0.6-1.3-1.2-2.8-1.9-4.3c-0.7-1.5-1.3-3.1-2-4.7s-1.3-3.1-1.9-4.6c-0.6-1.5-1.2-3-1.8-4.3h-0.6V5.7z M252,5.7
					c0,0.8,0.1,1.9,0.1,3.5s0,3.4,0,5.6c0,0.7,0,1.6,0,2.6s-0.1,1.9-0.1,2.9s-0.1,2-0.1,3c-0.1,1-0.1,1.9-0.2,2.8
					c0,0.9-0.1,1.6-0.2,2.2s-0.1,1-0.2,1.3c0.4,0,0.8-0.1,1.3-0.1c0.4,0,0.8,0,1.2,0.1c0-0.2,0-0.5-0.1-1c0-0.5,0-1.1-0.1-1.8
					c0-0.7,0-1.4-0.1-2.2c0-0.8,0-1.6-0.1-2.3c0-0.8,0-1.5,0-2.2s0-1.3,0-1.8c0-1.8,0-3.3,0-4.4s0-1.9,0.1-2.6
					c2.9,3.1,5.9,6.3,8.9,9.4c3,3.2,5.7,6.3,8.3,9.3h0.5v-1.1c0-0.5,0-1.2,0-1.9c0-0.7,0-1.5,0-2.4s0-1.7,0-2.5s0-1.6,0-2.4v-2
					c0-0.7,0-1.5,0.1-2.6c0-1.1,0.1-2.2,0.2-3.3s0.1-2.2,0.2-3.2s0.1-1.7,0.2-2.2c-0.5,0.1-0.8,0.2-1.1,0.2c-0.3,0-0.7-0.1-1.2-0.2
					c0.1,2,0.2,4.1,0.2,6.4s0.1,4.6,0.1,7v4.6c-1-1-2.3-2.3-3.7-3.8c-1.4-1.5-2.9-3.1-4.4-4.7c-1.6-1.7-3.1-3.4-4.7-5.1
					S254,7.5,252.7,6H252V5.7z"/>
			</g>
			<g>
				<defs>
					<path id="SVGID_6_" d="M61.2,6.3c-1.4,0-2.9,0.1-4.4,0.1s-3,0-4.4-0.1c-1.4,0-2.9-0.1-4.4-0.1c0.1,0.4,0.2,0.7,0.2,1
						c0,0.3-0.1,0.7-0.2,1.1c0.5-0.1,1-0.1,1.6-0.2c0.6,0,1.3-0.1,1.9-0.1c0.6,0,1.3-0.1,1.9-0.1s1.3,0,1.9,0c0.1,2.3,0.1,4.7,0.1,7
						v5.9c0,1.5,0,3-0.1,4.4c-0.1,1.5-0.1,2.9-0.2,4.3c0.5,0,1.1-0.1,1.7-0.1s1.1,0,1.7,0.1c-0.1-1.4-0.1-2.8-0.2-4.3
						c-0.1-1.4-0.1-2.9-0.1-4.4V15c0-2.4,0-4.7,0.1-7c0.6,0,1.2,0,1.9,0c0.6,0,1.3,0,1.9,0.1c0.6,0,1.3,0.1,1.9,0.1s1.1,0.1,1.6,0.2
						c-0.1-0.4-0.2-0.8-0.2-1.1c0-0.3,0.1-0.6,0.2-1.1C64.2,6.2,62.7,6.2,61.2,6.3 M200.4,17c-0.4,0-0.7-0.1-1-0.1V15
						c0-1.2,0-2.5,0.1-3.7c0-1.2,0.1-2.5,0.1-3.7c0.4,0,0.8-0.1,1.3-0.1s1.2-0.1,2-0.1c0.6,0,1.2,0.1,1.8,0.2s1.2,0.4,1.7,0.7
						s0.9,0.8,1.3,1.4c0.3,0.6,0.5,1.3,0.5,2.2c0,1-0.2,1.9-0.6,2.5c-0.4,0.7-0.9,1.2-1.6,1.6c-0.6,0.4-1.3,0.7-2.1,0.8
						c-0.8,0.2-1.5,0.2-2.2,0.2C201.1,17.1,200.8,17.1,200.4,17 M202.1,6.2c-0.6,0.1-1.3,0.1-1.9,0.1c-0.7,0-1.3,0-1.9-0.1
						c-0.6,0-1.3-0.1-1.9-0.1c0.1,1.5,0.1,3,0.2,4.4c0.1,1.4,0.1,2.9,0.1,4.4v5.9c0,1.5,0,3-0.1,4.4c-0.1,1.5-0.1,2.9-0.2,4.3
						c0.5,0,1.1-0.1,1.7-0.1c0.6,0,1.1,0,1.7,0.1c-0.1-1.4-0.1-2.8-0.2-4.3c-0.1-1.5-0.1-2.9-0.1-4.4v-2.5h1.3
						c0.7,0.7,1.5,1.7,2.4,2.7c0.9,1.1,1.7,2.2,2.6,3.3c0.8,1.1,1.6,2.1,2.3,3.1s1.2,1.7,1.5,2.1c0.3,0,0.6-0.1,1-0.1h1h1
						c0.3,0,0.7,0,1,0.1c-0.3-0.3-0.7-0.8-1.3-1.4c-0.5-0.6-1.1-1.3-1.7-2c-0.6-0.7-1.2-1.5-1.8-2.3s-1.2-1.6-1.8-2.3
						c-0.6-0.7-1.1-1.4-1.6-2s-0.9-1.1-1.1-1.4c0.7-0.1,1.4-0.3,2.2-0.6c0.8-0.3,1.6-0.7,2.3-1.2s1.3-1.2,1.8-1.9
						c0.5-0.8,0.7-1.7,0.7-2.8c0-1-0.2-1.9-0.6-2.6c-0.4-0.7-0.9-1.2-1.5-1.7c-0.6-0.4-1.4-0.7-2.3-0.9c-0.9-0.2-1.8-0.3-2.7-0.3
						C203.4,6.1,202.8,6.2,202.1,6.2 M229.5,6.3c-1.4,0-2.9,0.1-4.4,0.1s-3,0-4.4-0.1c-1.4,0-2.9-0.1-4.4-0.1
						c0.1,0.5,0.2,0.8,0.2,1.1c0,0.3-0.1,0.7-0.2,1.1c0.5-0.1,1-0.1,1.6-0.2c0.6,0,1.2-0.1,1.9-0.1c0.6,0,1.3-0.1,1.9-0.1
						c0.6,0,1.3,0,1.9,0c0.1,2.3,0.1,4.7,0.1,7v5.9c0,1.5,0,3-0.1,4.4c-0.1,1.5-0.1,2.9-0.2,4.3c0.5,0,1.1-0.1,1.7-0.1
						c0.6,0,1.1,0,1.7,0.1c-0.1-1.4-0.1-2.8-0.2-4.3s-0.1-2.9-0.1-4.4V15c0-2.4,0-4.7,0.1-7c0.6,0,1.2,0,1.9,0c0.6,0,1.3,0,1.9,0.1
						c0.6,0,1.3,0.1,1.9,0.1s1.1,0.1,1.6,0.2c-0.1-0.4-0.2-0.8-0.2-1.1c0-0.3,0.1-0.6,0.2-1.1C232.4,6.2,230.9,6.2,229.5,6.3
						 M242.2,6.3c-0.3,0-0.5,0.1-0.8,0.1s-0.5,0-0.8-0.1c-0.3,0-0.6-0.1-0.9-0.1c0.1,1.5,0.1,3,0.2,4.4s0.1,2.9,0.1,4.4v5.9
						c0,1.5,0,3-0.1,4.4c-0.1,1.5-0.1,2.9-0.2,4.3c0.5,0,1.1-0.1,1.7-0.1s1.1,0,1.7,0.1c-0.1-1.4-0.1-2.8-0.2-4.3s-0.1-2.9-0.1-4.4
						V15c0-1.5,0-3,0.1-4.4s0.1-2.9,0.2-4.4C242.9,6.2,242.5,6.2,242.2,6.3 M15.8,19c-0.6,0-1.2,0-1.8,0l3.7-8.6l3.8,8.6
						c-0.6,0-1.3,0-1.9,0c-0.6,0-1.3,0-1.9,0C17.2,19,16.5,19,15.8,19 M18.2,5.7c-1.8,4.1-3.5,8.1-5.3,12c-1.7,3.9-3.5,7.9-5.4,11.8
						c0.4,0,0.8-0.1,1.3-0.1s0.9,0,1.3,0.1c0.3-1,0.7-2.4,1.3-4s1.2-3.3,2-5.1c0.7,0,1.4,0,2.1-0.1c0.7,0,1.4,0,2.1,0
						c0.7,0,1.5,0,2.2,0s1.5,0,2.2,0.1c0.3,0.7,0.6,1.5,1,2.4c0.3,0.8,0.7,1.6,1,2.5c0.3,0.8,0.6,1.6,0.9,2.3
						c0.3,0.7,0.5,1.4,0.6,1.9c0.3,0,0.6-0.1,0.9-0.1h0.8h0.9c0.3,0,0.6,0,0.9,0.1c-0.3-0.5-0.7-1.3-1.1-2.4c-0.5-1-1-2.2-1.6-3.6
						c-0.6-1.3-1.2-2.8-1.9-4.3c-0.7-1.5-1.3-3.1-2-4.7c-0.5-1.5-1.2-3-1.8-4.5s-1.2-3-1.8-4.3H18.2z M36.4,6.2
						c-0.9,0.3-1.7,0.8-2.3,1.3c-0.6,0.6-1.1,1.2-1.5,2c-0.3,0.8-0.5,1.7-0.5,2.6c0,1.3,0.3,2.4,0.8,3.2s1.2,1.4,2,2
						c0.8,0.5,1.7,0.9,2.6,1.3c0.9,0.3,1.8,0.7,2.6,1.1c0.8,0.4,1.5,0.9,2,1.5s0.8,1.4,0.8,2.5c0,0.7-0.1,1.3-0.3,1.9
						c-0.2,0.6-0.6,1.1-1,1.6c-0.4,0.4-0.9,0.8-1.5,1.1c-0.6,0.3-1.3,0.4-2,0.4s-1.4-0.1-2-0.3c-0.6-0.2-1.1-0.5-1.5-0.8
						s-0.8-0.7-1.1-1.1s-0.6-0.8-0.7-1.2h-0.4c-0.1,0.7-0.1,1.2-0.2,1.6c-0.1,0.4-0.2,0.9-0.4,1.4c0.6,0.5,1.3,0.9,2.2,1.3
						c0.9,0.4,2,0.6,3.4,0.6c1.3,0,2.5-0.2,3.5-0.6s1.9-0.9,2.6-1.6s1.3-1.5,1.6-2.4c0.4-0.9,0.6-1.9,0.6-3c0-1.2-0.3-2.2-0.8-3
						c-0.5-0.7-1.2-1.4-2-1.8c-0.8-0.5-1.7-0.9-2.6-1.2c-0.9-0.3-1.8-0.7-2.6-1.1c-0.8-0.4-1.5-0.9-2-1.5s-0.8-1.5-0.8-2.5
						c0-0.6,0.1-1.2,0.3-1.7c0.2-0.5,0.5-1,0.9-1.3c0.4-0.4,0.9-0.7,1.4-0.9c0.4-0.5,1-0.6,1.6-0.6s1.2,0.1,1.6,0.3
						c0.5,0.2,0.8,0.5,1.2,0.8c0.3,0.3,0.6,0.7,0.8,1c0.2,0.4,0.3,0.7,0.5,1h0.4c0.1-0.7,0.3-1.2,0.4-1.6c0.1-0.4,0.3-0.8,0.5-1.2
						c-0.7-0.5-1.4-0.9-2.2-1.2c-0.8-0.3-1.7-0.4-2.8-0.4C38.3,5.7,37.3,5.9,36.4,6.2 M75.8,28.2c-1.1-0.4-2.1-1.1-3-2s-1.5-2-2-3.4
						s-0.7-3-0.7-4.9s0.2-3.5,0.7-4.9s1.1-2.5,2-3.4s1.8-1.6,3-2C76.9,7.2,78.2,7,79.5,7c1.3,0,2.6,0.2,3.7,0.6c1.1,0.4,2.1,1.1,3,2
						s1.5,2,2,3.4s0.7,3,0.7,4.9s-0.2,3.5-0.7,4.9s-1.1,2.5-2,3.4s-1.9,1.6-3,2s-2.4,0.6-3.7,0.6C78.2,28.8,76.9,28.6,75.8,28.2
						 M74.4,6.5c-1.6,0.5-2.9,1.3-4,2.4c-1.1,1-2,2.3-2.6,3.8s-0.9,3.2-0.9,5.2c0,1.9,0.3,3.6,0.9,5.2c0.6,1.5,1.5,2.8,2.6,3.8
						s2.5,1.8,4,2.3c1.6,0.5,3.3,0.8,5.1,0.8c1.9,0,3.6-0.3,5.2-0.8s2.9-1.3,4-2.3s2-2.3,2.6-3.8s0.9-3.2,0.9-5.2
						c0-1.9-0.3-3.6-0.9-5.2c-0.6-1.5-1.5-2.8-2.6-3.8s-2.5-1.8-4-2.4c-1.6-0.5-3.3-0.8-5.2-0.8C77.7,5.7,75.9,6,74.4,6.5 M97.8,5.7
						c0,0.8,0.1,1.9,0.1,3.5s0,3.4,0,5.6c0,0.7,0,1.6,0,2.6s-0.1,1.9-0.1,2.9s-0.1,2-0.1,3c-0.1,1-0.1,1.9-0.2,2.8
						c0,0.9-0.1,1.6-0.2,2.2s-0.1,1-0.2,1.3c0.4,0,0.8-0.1,1.3-0.1c0.4,0,0.8,0,1.2,0.1c0-0.2,0-0.5-0.1-1c0-0.5,0-1.1-0.1-1.8
						c0-0.7,0-1.4-0.1-2.2c0-0.8,0-1.6-0.1-2.3c0-0.8,0-1.5,0-2.2s0-1.3,0-1.8c0-1.8,0-3.3,0-4.4s0-1.9,0.1-2.6
						c3,3.1,5.9,6.3,8.9,9.4c2.9,3.2,5.7,6.3,8.3,9.3h0.5v-1.1c0-0.5,0-1.2,0-1.9c0-0.7,0-1.5,0-2.4s0-1.7,0-2.5s0-1.6,0-2.4v-2
						c0-0.7,0-1.5,0.1-2.6c0-1.1,0.1-2.2,0.2-3.3c0.1-1.1,0.1-2.2,0.2-3.2c0.1-1,0.1-1.7,0.2-2.2c-0.5,0.1-0.8,0.2-1.1,0.2
						s-0.7-0.1-1.2-0.2c0.1,2,0.2,4.1,0.2,6.4s0.1,4.6,0.1,7v4.6c-1-1-2.3-2.3-3.7-3.8s-2.9-3.1-4.4-4.7c-1.6-1.7-3.1-3.4-4.7-5.1
						c-1.6-1.7-3.1-3.3-4.4-4.8h-0.7V5.7z M161.2,5.7c-0.6,1-1.2,2.2-1.8,3.4c-0.7,1.2-1.3,2.4-2,3.7c-0.7,1.2-1.3,2.5-2,3.7
						c-0.6,1.2-1.3,2.3-1.8,3.4c-0.6,1-1.1,2-1.5,2.8s-0.8,1.4-1,1.9c-1.7-3.2-3.4-6.3-5-9.4c-1.6-3-3.2-6.2-4.7-9.4h-0.6
						c-0.2,1.8-0.4,3.7-0.6,5.7c-0.3,2-0.5,4-0.8,6.1s-0.6,4.1-0.9,6.2c-0.3,2-0.6,4-0.9,5.8c0.4,0,0.8-0.1,1.2-0.1s0.8,0,1.2,0.1
						c0-0.9,0.1-2.1,0.2-3.5c0.1-1.4,0.2-2.9,0.4-4.5s0.3-3.2,0.5-4.9c0.2-1.6,0.4-3.2,0.5-4.6h0.1c1.5,3,3,5.9,4.5,8.8
						s2.9,5.7,4.3,8.6h0.3c1.4-3.1,2.8-6,4.3-8.9c1.5-2.8,3-5.7,4.6-8.5h0.1c0.4,2.9,0.7,5.8,0.9,8.7c0.2,2.8,0.5,5.8,0.7,8.8
						c0.3,0,0.5-0.1,0.8-0.1h0.8h0.8c0.3,0,0.5,0,0.8,0.1c-0.3-1.9-0.5-3.8-0.7-5.7c-0.2-1.9-0.5-3.9-0.7-5.8c-0.2-2-0.4-4-0.7-6
						c-0.2-2-0.4-4.1-0.7-6.3L161.2,5.7L161.2,5.7z M177.1,19c-0.6,0-1.2,0-1.8,0l3.7-8.6l3.8,8.6c-0.6,0-1.3,0-1.9,0
						c-0.6,0-1.3,0-1.9,0C178.4,19,177.9,19,177.1,19 M179.6,5.7c-1.8,4.1-3.5,8.1-5.3,12c-1.7,3.9-3.5,7.9-5.4,11.8
						c0.4,0,0.8-0.1,1.3-0.1s0.9,0,1.3,0.1c0.3-1,0.7-2.4,1.3-4s1.2-3.3,2-5.1c0.7,0,1.4,0,2.1-0.1c0.7,0,1.4,0,2.1,0
						c0.7,0,1.5,0,2.2,0s1.5,0,2.2,0.1c0.3,0.7,0.6,1.5,1,2.4c0.3,0.8,0.7,1.6,1,2.5c0.3,0.8,0.6,1.6,0.9,2.3
						c0.3,0.7,0.5,1.4,0.6,1.9c0.3,0,0.6-0.1,0.9-0.1h0.9h0.9c0.3,0,0.6,0,0.9,0.1c-0.3-0.5-0.7-1.3-1.1-2.4c-0.5-1-1-2.2-1.6-3.6
						c-0.6-1.3-1.2-2.8-1.9-4.3c-0.7-1.5-1.3-3.1-2-4.7s-1.3-3.1-1.9-4.6c-0.6-1.5-1.2-3-1.8-4.3h-0.6V5.7z M252,5.7
						c0,0.8,0.1,1.9,0.1,3.5s0,3.4,0,5.6c0,0.7,0,1.6,0,2.6s-0.1,1.9-0.1,2.9s-0.1,2-0.1,3c-0.1,1-0.1,1.9-0.2,2.8
						c0,0.9-0.1,1.6-0.2,2.2s-0.1,1-0.2,1.3c0.4,0,0.8-0.1,1.3-0.1c0.4,0,0.8,0,1.2,0.1c0-0.2,0-0.5-0.1-1c0-0.5,0-1.1-0.1-1.8
						c0-0.7,0-1.4-0.1-2.2c0-0.8,0-1.6-0.1-2.3c0-0.8,0-1.5,0-2.2s0-1.3,0-1.8c0-1.8,0-3.3,0-4.4s0-1.9,0.1-2.6
						c2.9,3.1,5.9,6.3,8.9,9.4c3,3.2,5.7,6.3,8.3,9.3h0.5v-1.1c0-0.5,0-1.2,0-1.9c0-0.7,0-1.5,0-2.4s0-1.7,0-2.5s0-1.6,0-2.4v-2
						c0-0.7,0-1.5,0.1-2.6c0-1.1,0.1-2.2,0.2-3.3s0.1-2.2,0.2-3.2s0.1-1.7,0.2-2.2c-0.5,0.1-0.8,0.2-1.1,0.2c-0.3,0-0.7-0.1-1.2-0.2
						c0.1,2,0.2,4.1,0.2,6.4s0.1,4.6,0.1,7v4.6c-1-1-2.3-2.3-3.7-3.8c-1.4-1.5-2.9-3.1-4.4-4.7c-1.6-1.7-3.1-3.4-4.7-5.1
						S254,7.5,252.7,6H252V5.7z"/>
				</defs>
				<clipPath id="SVGID_7_">
					<use xlink:href="#SVGID_6_"  style="overflow:visible;"/>
				</clipPath>
				
					<linearGradient id="SVGID_8_" gradientUnits="userSpaceOnUse" x1="-1514.88" y1="-938.8538" x2="-1514.88" y2="-938.717" gradientTransform="matrix(177.3406 0 0 177.3406 268789.4375 166502.6094)">
					<stop  offset="0" style="stop-color:#838587"/>
					<stop  offset="0.5" style="stop-color:#909295"/>
					<stop  offset="0.6981" style="stop-color:#797A7D"/>
					<stop  offset="1" style="stop-color:#4E4F51"/>
				</linearGradient>
				<rect x="7.5" y="5.7" class="st4" width="264.3" height="24.3"/>
			</g>
		</g>
	</g>
	<g>
		<g>
			<path class="st5" d="M121.4,71.2v11.2c0,1.9-1.6,3.4-3.5,3.4s-3.5-1.5-3.5-3.4V71.2h-6.2v12.4c0,4.2,4.3,7.6,9.7,7.6
				c5.3,0,9.7-3.4,9.7-7.6V71.2H121.4z M141.4,57.9v32.5h6.2V57.9H141.4z M130.9,90.5h6.2V57.9h-6.2V90.5z M100.6,73.6
				c1.7-1.6,2.7-3.7,2.7-6c0-2.1-0.8-4-2.2-5.6c-1.5-1.6-4.1-2.5-7.6-2.5H82.9v31h13.7c5.2-0.1,9.5-4,9.5-8.9
				C105.9,78,104.8,75.5,100.6,73.6z M95.3,85.1h-5.9V64.8h4.1c1.8,0,3.3,1.7,3.3,3.5s-1.5,3.3-3.3,3.3h-2.2v5.6h3.9
				c2.2,0,3.9,1.8,3.9,4S97.8,84.9,95.3,85.1z"/>
			<path class="st5" d="M28.2,68.6c0-5.1-4.2-9.2-9.3-9.2c-0.2,0-11.3,0-11.3,0v31h6.6V64.8h3.4c2.4,0,4.3,1.8,4.3,4.1
				c0,2.2-2,4.1-4.4,4.1H16v7.4l6.6,10.2h7.6l-9.1-13C25.2,76.5,28.2,72.9,28.2,68.6z M39.8,70.4c-5.7,0-10.2,4.6-10.2,10.4
				c0,5.7,4.6,10.4,10.2,10.4c4.3,0,7.7-2,9.4-5l-5-2.3c-0.6,1.4-2.1,2.4-3.9,2.4c-2.4,0-4.2-1.8-4.2-3.9c0-0.1,0-0.2,0-0.2h13.7
				c0-0.4,0.1-0.9,0.1-1.3C49.8,74.1,45.4,70.4,39.8,70.4z M36.1,78.5c0-2.1,1.7-3.8,3.8-3.8c2.1,0,3.8,1.7,3.8,3.8H36.1z
				 M74.3,90.5V58h-6.2v15.4c-1.6-1.6-3.8-2.6-6.2-2.6c-5.1,0-9.3,4.5-9.3,10.1S56.8,91,62,91c2.4,0,4.6-1,6.3-2.7v2.2H74.3z
				 M63.8,85.7c-2.5,0-4.5-2.2-4.5-5c0-2.7,2-5,4.5-5s4.5,2.2,4.5,5S66.2,85.7,63.8,85.7z"/>
		</g>
		<circle class="st6" cx="216.1" cy="73.6" r="21.2"/>
		<g>
			<path class="st6" d="M271.5,87.8L271.5,87.8c0-0.1-0.1-0.1-0.1-0.2s0-0.2-0.1-0.4l0,0c0-0.3-0.1-0.7-0.2-1
				c-0.2-0.5-0.7-0.9-1.3-1c0-0.2-0.1-0.4-0.2-0.5c-0.4-0.5-0.9-0.9-1.3-1.1c-0.1-0.1-0.2-0.2-0.3-0.2l-0.1-0.1
				c-0.3-0.2-0.6-0.3-0.9-0.3c-0.6,0-1.1,0.3-1.5,0.8c-0.1-0.2-0.2-0.5-0.2-0.7c-0.1-0.3-0.2-0.6-0.2-0.8l0,0v-0.1
				c-0.1-0.4-0.5-1.3-1.5-1.5c-0.3,0-0.6-0.1-0.8-0.1c-0.5,0-0.7-0.1-0.8-0.1c0,0,0-0.1,0.1-0.2c0.1-0.2,0.2-0.4,0.2-0.6
				c0.2-0.7,0.4-1.7,0.2-2.6c0.2,0,0.5,0.1,0.8,0.1c0.8,0,1.7-0.2,2.5-0.5l0,0c1.5-0.7,3-2.4,2.9-4.5v-0.1c-0.2-1.8-1.2-3.5-3.1-5.2
				c0.5-0.1,1-0.3,1.5-0.6c1.4-0.9,2-2.6,1.6-4.5v-0.1c-0.2-1-1-1.1-1.2-1.1c-0.3,0-0.6,0.1-0.8,0.3l-0.1,0.1
				c-0.1,0.1-0.2,0.2-0.3,0.3c-0.3,0.2-0.7,0.3-1.2,0.4c-0.3,0.1-0.7,0.2-1.1,0.3c-1.7,0.6-2.8,1.5-3.2,2.7
				c-0.3,0.7-0.1,1.6,0.3,2.5v0.1c0.5,0.8,1.2,1.5,1.9,2.1c0.9,0.9,1.8,1.7,2,2.7c0,0.2,0.1,0.5-0.5,1c-0.2,0.1-0.6,0.2-0.9,0.2
				c-0.5,0-1.1-0.2-1.6-0.4l0,0c-0.7-0.4-1.5-0.9-2.2-1.4c-1.2-0.8-2.4-1.6-3.8-2.1c-0.7-0.3-1.3-0.4-2-0.5c-0.8-0.2-1.5-0.3-2-0.7
				l-0.1-0.1c-0.2-0.1-0.5-0.3-0.7-0.5c-0.7-0.5-1.5-1.1-2.4-1.3c-0.4-0.1-0.7-0.2-1-0.2c-0.4-0.1-0.6-0.1-0.7-0.2
				c-0.2-0.1-0.3-0.2-0.5-0.3l0,0c-0.6-0.5-1.3-0.9-2-1.3c-1.2-0.6-2.4-0.9-3.7-1.2c-0.1,0-0.2-0.2-0.4-0.4
				c-0.2-0.2-0.4-0.5-0.8-0.8c-1-0.8-2.1-1.5-3.6-1.5c-0.1,0-0.3,0-0.4,0c-0.9,0.1-1.7,0.7-2.2,1.1c-1.1,1-2.3,1.8-3.5,2.7
				c-1.8,1.3-3.7,2.7-5.3,4.5c-1.7,1.8-2.3,4-2.9,5.9c-0.1,0.3-0.2,0.6-0.2,0.9c-0.1,0.5-0.3,1.1-0.4,1.6c-0.7,2.7-1.3,5.3-3.8,6.9
				c-0.4,0.3-0.6,0.7-0.6,1.2c0.1,0.5,0.4,0.9,0.8,1.1c0.2,0.1,0.5,0.2,1,0.2c0,0.3,0.1,0.5,0.3,0.7s0.5,0.5,1.1,0.5l0,0
				c1.7,0,3-1,4-2c0.4,0.3,0.9,0.7,1.5,0.8h0.2h0.2c0.6-0.1,1.2-0.2,1.7-0.1c0.5,0.2,1,0.4,1.6,0.6c0.4,0.1,0.8,0.3,1.2,0.4l0.2,0.1
				h0.2c1.1,0,1.8-1,2-1.4V86v-0.1c0-0.1,0.1-0.2,0.1-0.3l0,0l0.1,0.2c0.1,0.5,0.3,1.1,0.6,1.5c0.3,0.4,0.8,0.6,1.3,0.6l0,0
				c0.2,0,0.4,0,0.5,0c0,0,0,0,0.1,0c0,0,0,0,0.1,0.1c0.2,0.2,0.5,0.5,1,0.7s0.9,0.3,1.4,0.4c0.6,0.1,1.1,0.3,1.7,0.5h0.1
				c0.4,0.1,0.9,0.3,1.3,0.3c0.7,0,1.2-0.3,1.6-0.6c0.6-0.5,0.9-1.1,1-1.6c0.1,0,0.2,0,0.3-0.1c0.8-0.3,1.5-1.7,1.5-1.7
				c0.1-0.1,0.1-0.2,0.2-0.3c0.2-0.3,0.3-0.6,0.3-0.9c0-0.7-0.6-1.3-1.3-1.4h-0.1c-0.1,0-1.5,0-1.9,0l0,0c-0.2,0-0.3,0-0.5,0.1l0,0
				c-0.1-0.1-0.2-0.4-0.4-0.5c0,0,0,0,0.1,0h0.4c0.3,0,0.5,0,0.8,0c0.9,0,1.8-0.2,2.6-0.3c0.7-0.1,1.4-0.1,2.2-0.1
				c0.1,0,0.1,0,0.2,0l0,0c0.3,0,0.6,0,1,0.1c0.3,0,0.7,0.1,1.1,0.1c0.1,0,0.3,0,0.4,0c0.4,0,0.7-0.1,1.1-0.2c0,0.2,0.1,0.4,0.1,0.7
				l0.1,0.2c0.2,0.8,0.5,2,1.9,3l0.2,0.1c0.7,0.4,1.1,0.7,2.1,0.9c0.3,0,0.7,0,1.1,0c1.3-0.3,2.7,0.1,3.8,0.9l0.1,0.1
				c0.1,0.1,0.2,0.2,0.3,0.3c0.3,0.2,0.6,0.5,1,0.7c0.3,0.1,0.6,0.2,0.9,0.2l0,0c0.6,0,1-0.2,1.2-0.3l0,0c0,0.1,0.1,0.1,0.1,0.2
				c0.2,0.3,0.4,0.6,0.7,0.9c0.6,0.6,1.4,0.7,1.9,0.7c0.2,0,0.5,0,0.7,0c0.1,0,0.2,0,0.2,0c0.1,0,0.3,0,0.4,0c0.2,0,0.3,0,0.3-0.1
				c0.3,0.2,0.6,0.2,0.7,0.2s0.2,0,0.3,0l1.2-0.4c0.3-0.1,0.6-0.4,0.8-0.7C272,88.7,271.8,88.2,271.5,87.8z M233.4,81.8l-0.1-0.1
				c0-0.1-0.1-0.1-0.1-0.2c-0.2-0.3-0.3-0.5-0.4-0.7c0.4,0,0.7,0.1,1.1,0.1L233.4,81.8z"/>
			<path class="st6" d="M215.4,83.4l-0.6-0.3c-0.5-0.3-0.9-0.9-1.3-1.6c-0.2-0.3-0.4-0.6-0.6-0.9c-0.2-0.3-0.5-0.5-0.7-0.7l-0.1-0.1
				c-0.7-1.9-1.4-4.1-1.6-6.4c0-0.6-0.4-1.6-0.8-2.3l0,0c-1.1-1.8-3.6-4.7-3.8-4.9c-0.1-0.1-0.2-0.2-0.3-0.3l-0.1-0.1l-4.5-3.7
				l-0.1-0.1c-0.9-0.7-1.3-0.8-2-1.1c-1.2-0.4-2.8-0.4-3.9,0.1h-0.1c-0.4,0.2-0.8,0.4-1.1,0.7c-0.5,0.3-1,0.7-1.6,0.8H192
				c-0.4,0.2-0.9,0.4-1.4,0.5c-1.1,0.3-2.3,0.7-3.3,1.6c-0.2,0.2-0.4,0.4-0.6,0.6c-0.2,0.2-0.5,0.4-0.6,0.5c0,0-0.1,0-0.2,0
				c-1.7,0-2.9,0.4-4.2,1.5l0,0c-0.8,0.7-1.5,1.3-2.3,1.6c-0.3,0.1-0.7,0.2-1.2,0.2l0,0c-0.8,0.1-0.9,0.1-1.6,0.3
				c-1.3,0.3-2.5,1.3-3.5,2c-0.4,0.3-0.7,0.6-0.8,0.6c-0.1,0.1-0.2,0.1-0.3,0.2c-1.1,0.6-2,1.2-3.2,1.2h-0.1c-0.6-0.1-1.2-0.5-1.4-1
				c-0.2-0.7,0-1.4,0.6-2c0.4-0.4,0.8-0.8,1.3-1.1c0.8-0.7,1.5-1.3,2-2c0.9-1.1,0.8-2.9-0.2-4c-0.7-0.8-2-1.2-3-1.5h-0.1
				c0,0-0.1,0-0.2,0h-0.1c-0.1,0-0.2,0-0.3-0.1c-0.2,0-0.4-0.1-0.6-0.1c-0.4-0.1-0.7-0.3-1.1-0.6c-0.3-0.2-0.6-0.4-0.9-0.6l-0.8-0.4
				l-0.5,0.8c-0.4,0.6-0.6,1.3-0.5,2.1v0.1c0.2,1.4,1.3,2.9,2.7,3.5l0,0c0,0,0.1,0,0.1,0.1c0.3,0.1,0.6,0.2,0.9,0.2
				c-0.7,0.6-1.5,1.3-2.1,2.1c-1.3,1.4-1.3,3.6-0.8,5.1c0.7,2,2.7,3.1,4.4,3.3c0.3,0,0.6,0.1,0.9,0.1c0.5,0,1-0.1,1.5-0.2l0,0
				c0,0.7,0.1,1.2,0.1,1.5c0.1,0.6,0.4,1.3,0.6,1.8l0,0c-0.4,0.2-0.9,0.5-1.1,0.5c-0.3,0-0.6,0.1-0.8,0.1s-0.3,0-0.4,0
				c-0.3,0-0.7,0.2-0.9,0.4c-0.3,0.3-0.5,0.8-0.8,1.5c-0.1,0.3-0.2,0.6-0.3,0.8c-0.1,0.1-0.2,0.3-0.3,0.4c-0.2-0.3-0.5-0.6-0.7-0.7
				l0,0l0,0c-0.5-0.4-1.2-0.4-1.7,0c-0.1,0.1-0.2,0.1-0.2,0.2h-0.1c-0.3,0.2-0.7,0.5-1.1,0.8c-0.3,0.2-0.4,0.5-0.5,0.9
				c-0.1,0-0.2,0-0.3,0.1c-0.6,0.3-1.3,1-1.4,1.7c0,0.3-0.1,0.7-0.1,0.9c0,0,0,0-0.1,0.1c-0.4,0.5-0.5,1.3,0,1.8
				c0.4,0.4,1.7,0.7,2,0.7h0.1h0.2h0.1c0.1,0,0.2-0.1,0.2-0.1h0.3c0.2,0,0.4,0.1,0.6,0.1c0.4,0.1,0.8,0.2,1.2,0.2
				c0.5,0,0.9-0.1,1.3-0.3c0.7-0.3,1-0.9,1.3-1.4c0.1-0.1,0.1-0.3,0.2-0.4h0.1c0.2,0.1,0.4,0.1,0.7,0.1c1.1,0.1,2.1-0.6,2.6-1
				c0.2-0.2,0.4-0.3,0.5-0.5c0.2-0.2,0.4-0.3,0.5-0.5c0.2-0.1,0.4-0.1,0.7-0.1c0.5,0,1,0.1,1.5,0.2c1,0.2,2,0.1,2.8-0.3
				c0.4-0.2,0.9-0.5,1.2-0.7h0.1c0.2-0.1,0.4-0.2,0.5-0.3c0.8-0.4,1.4-1.4,1.8-2.1c0.2-0.4,0.5-1,0.5-1.2c0.1,0,0.1,0,0.2,0l0,0
				c0.5,0,1.1-0.1,1.6-0.2c0.3-0.1,0.7-0.1,0.9-0.1l0,0c0.1,0,0.2,0,0.3,0c0.5,0,1.2,0.1,1.7,0.1c0.4,0,0.7,0.1,1.3,0.1
				c0.1,0,0.2,0,0.3,0c0.2,0,0.4,0,0.6,0c0.6,0,1.1-0.1,1.5-0.3c0.1,0.1,0.3,0.4,0.4,0.5c0,0,0,0-0.1,0c-0.4,0-0.7,0.2-1,0.4
				c-0.3-0.2-0.9-0.2-1.4-0.1c-0.6,0-1.1,0.1-1.7,0.3c-0.4,0.1-0.8,0.3-1,0.7c-0.2,0.4-0.2,0.9,0.1,1.3c0.3,0.5,0.6,1,0.9,1.6
				l0.1,0.2c0.1,0.2,0.5,0.6,1.2,0.6c0.1,0,0.2,0,0.3,0l0,0c0,0,0,0.1,0.1,0.1c0.2,0.4,0.5,0.9,1,1.3s1.2,0.7,1.9,0.7
				c0.3,0,0.6,0,0.9-0.1c1.4-0.4,2.7-0.9,4-1.5h0.2h0.1c0.1,0,0.2,0,0.3,0c0.5,0,1.3-0.1,1.9-0.7l0.1-0.1V87c0.2-0.3,0.5-0.7,0.7-1
				v0.1l0,0c0.3,0.9,1.2,1.3,2,1.3l0,0l0,0c0.9,0,1.6-0.3,2.3-0.6l0,0c0.1,0,0.2-0.1,0.3-0.1h0.1c0.5-0.2,1.3-0.3,2.2-0.1h0.1h0.1
				c0.9-0.1,1.7-0.5,2.3-1c1.1,1.2,2.6,1.8,4.3,1.8c0.1,0,0.1,0,0.2,0h0.3h0.1c0.6-0.1,0.9-0.6,1-1.1c0-0.1,0-0.2,0-0.3
				c0.1,0,0.2,0,0.3-0.1c0.5-0.1,0.9-0.5,1-1.1C216.1,84.1,215.9,83.6,215.4,83.4z M200.4,80.5c0,0-0.1,0.1-0.2,0.1
				c-0.3,0.3-0.6,0.6-0.9,1c-0.2-0.3-0.3-0.6-0.4-0.8c0.5-0.1,0.9-0.2,1.3-0.4C200.4,80.5,200.4,80.4,200.4,80.5L200.4,80.5z"/>
		</g>
		<g>
			<path class="st5" d="M162.6,86C162.6,86,162.6,86.1,162.6,86c-0.4,0.1-0.8,0.6-0.8,0.8c-0.1,1.1-0.1,1.2-0.4,1.6
				c-0.1,0.1-0.1,0.3,0,0.4s1.2,0.4,1.3,0.4l0,0c0.1,0,0.2-0.3,0.4-1c0.1-0.4,0.3-0.9,0.4-1.3c0,0,0-0.1-0.1-0.2
				C163.2,86.5,162.9,86,162.6,86z M163.9,86c0.1,0.1,0.2,0.2,0.4,0.2c0.1,0,0.2,0,0.3-0.1c0.6-0.3,1.2-1.4,1.3-1.5
				c0.1-0.2-0.1-0.4-0.4-0.6l0,0c-0.1-0.1-0.3-0.1-0.5,0c-0.1,0.1-0.2,0.1-0.3,0.2c-0.3,0.2-0.6,0.4-1,0.7c-0.1,0.1-0.2,0.3-0.2,0.5
				c0,0.1,0,0.2,0.1,0.3C163.6,85.7,163.8,86,163.9,86z M214.9,84.3c-0.3-0.2-0.7-0.3-0.7-0.3c-0.8-0.5-1.3-1.2-1.7-2
				c-0.2-0.3-0.4-0.6-0.5-0.9c-0.1-0.2-0.3-0.4-0.5-0.6c-0.2-0.1-0.3-0.3-0.4-0.4c-0.7-2-1.5-4.3-1.7-6.9c0-0.4-0.3-1.3-0.6-1.8
				c-1-1.7-3.5-4.5-3.6-4.7c-0.1-0.1-0.2-0.2-0.3-0.3l-0.1-0.1l-4.4-3.7c-0.9-0.6-1.2-0.7-1.8-1c-0.4-0.1-0.9-0.2-1.4-0.2
				c-0.6,0-1.3,0.1-1.8,0.3c-0.4,0.2-0.7,0.4-1,0.6c-0.6,0.4-1.2,0.7-1.8,0.9c-0.5,0.2-1,0.4-1.5,0.5c-1,0.3-2,0.6-2.9,1.4
				c-0.2,0.2-0.4,0.4-0.6,0.6c-0.8,0.7-0.8,0.8-1.5,0.8c-1.4,0-2.5,0.4-3.5,1.2c-0.8,0.8-1.7,1.5-2.7,1.8c-0.4,0.2-0.9,0.2-1.4,0.3
				c-0.7,0.1-0.8,0.1-1.5,0.2c-1.1,0.2-2.2,1.1-3.1,1.8c-0.3,0.2-0.7,0.6-0.9,0.7c-0.1,0.1-0.2,0.1-0.3,0.2
				c-1.2,0.7-2.3,1.3-3.7,1.3h-0.1c-1.1-0.1-2-0.8-2.3-1.8c-0.3-1.1,0-2.2,0.9-3.1c0.4-0.4,0.9-0.8,1.3-1.2c0.7-0.6,1.4-1.2,1.9-1.8
				c0.6-0.7,0.5-2-0.1-2.7s-2-1-2.5-1.1h-0.1c-0.1,0-0.1,0-0.2,0c-0.3-0.1-0.6-0.1-1-0.2c-0.8-0.2-1.5-0.9-2.2-1.3
				c-0.3,0.4-0.4,0.9-0.3,1.4c0.1,1.1,1.1,2.2,2.1,2.7c0,0,0.1,0,0.1,0.1c0.3,0.1,0.7,0.2,1,0.2c0.1,0,0.1,0,0.2,0
				c0.1,0,0.1,0,0.2,0c0.2,0,0.4,0,0.6,0.1c0.2,0.1,0.4,0.2,0.4,0.5c0,0.1,0,0.3-0.2,0.4s-0.3,0.3-0.5,0.4c-0.9,0.7-1.8,1.5-2.5,2.4
				c-1,1.1-1,2.9-0.6,4.1c0.6,1.6,2.2,2.5,3.6,2.6c0.2,0,0.5,0.1,0.7,0.1c0.8,0,1.5-0.2,2.3-0.4c0,0,0,0,0.1,0c0,0,0.1,0,0.1,0.2
				c0,0.3,0,0.7,0.1,1.1c0,0.6,0.1,1.1,0.1,1.4c0.1,0.5,0.4,1.1,0.5,1.6c0.1,0.2,0.1,0.3,0.1,0.4c0.1,0.2,0,0.5-0.2,0.6
				c-0.6,0.5-1.7,0.9-1.9,0.9c-0.3,0-0.7,0.1-0.9,0.1c-0.1,0-0.2,0-0.3,0s-0.2,0.1-0.3,0.1c-0.2,0.2-0.3,0.6-0.5,1.1
				c-0.1,0.3-0.2,0.6-0.4,0.9c-0.4,0.6-0.9,0.9-1.5,1.3c-0.1,0.1-0.3,0.2-0.4,0.3l0,0c-0.2,0.4-0.5,0.7-0.8,1
				c-0.2,0.2-0.5,0.3-0.8,0.3l0,0l0,0c-0.4,0.5-0.6,1.2-0.7,1.9c0,0.1,0,0.2-0.1,0.3V89h0.1c0.2,0,0.5,0.1,0.7,0.1
				c0.3,0.1,0.7,0.1,1,0.1s0.6-0.1,0.8-0.2c0.4-0.2,0.7-0.6,0.9-1c0.1-0.2,0.3-0.5,0.5-0.7c0.1-0.1,0.3-0.2,0.5-0.2s0.3,0,0.5,0.1
				c0.2,0,0.3,0.1,0.5,0.1c0.8,0,1.5-0.5,1.9-0.7c0.2-0.1,0.3-0.3,0.5-0.4c0.2-0.2,0.5-0.5,0.7-0.6c0.3-0.2,0.7-0.2,1.2-0.2
				c0.6,0,1.2,0.1,1.7,0.2c0.3,0.1,0.5,0.1,0.8,0.1c0.5,0,0.9-0.1,1.3-0.3c0.4-0.2,0.9-0.5,1.2-0.7c0.2-0.1,0.4-0.2,0.5-0.3
				c0.6-0.3,1.2-1.3,1.4-1.7c0.2-0.4,0.5-1.2,0.5-1.2l0,0l-0.7-0.6V81c0,0-0.5,0.8-0.8,1.2c-1.3,1.8-3.4,2-5.1,2c-0.1,0-0.2,0-0.4,0
				c-2.1,0-3.8,0.7-5,2.1c-0.1,0.1-0.2,0.1-0.2,0c0,0,0-0.1,0-0.2s0-0.2,0.1-0.3c1.3-1.9,3.6-2.1,5.4-2.2c1.3-0.1,2.3-0.3,3.2-0.8
				c1.1-0.6,1.9-1.8,2.2-2.7c0.2-0.6,0.3-1.3,0.4-2c0.1-0.5,0.2-1.1,0.3-1.6c0-0.1,0.1-0.1,0.1-0.1s0,0,0.1,0s0.2,0.1,0.2,0.2
				c-0.2,1-0.4,2.4,0,3.6c0.2,0.5,0.7,0.7,1.4,0.7c0.4,0,0.9-0.1,1.4-0.2c0.4-0.1,0.7-0.1,1-0.1c0.1,0,0.3,0,0.4,0
				c0.6,0,1.2,0.1,1.7,0.2s1,0.2,1.5,0.2c0.1,0,0.2,0,0.3,0c0.2,0,0.4,0,0.5,0c0.4,0,0.7-0.1,1-0.3c0.2-0.1,0.1-0.3,0-0.6l0,0V80
				c-0.1-0.3-0.2-0.8,0-1h0.1c0,0,0.1,0,0.1,0.1s0.1,0.2,0.1,0.3c0.1,0.4,0.2,0.8,0.5,1.1c0.5,0.7,1.3,1.3,2.3,1.8
				c0.6,0.4,1.4,1.2,1.5,2.2c0,0.5-0.5,0.8-0.8,1c-0.5,0.3-1.4,0.6-1.9,0.6c-0.3,0-0.6-0.2-0.6-0.3c-0.5-0.5-0.5-0.6-0.8-1.2
				c-0.2-0.3-0.4-0.6-0.6-0.9c-0.3-0.4-0.7-0.5-1.3-0.5c-0.5,0-1,0.1-1.6,0.3c-0.1,0-0.2,0.1-0.3,0.2s0,0.3,0,0.4
				c0.3,0.5,0.6,1,0.9,1.5l0.1,0.2c0.1,0.1,0.2,0.1,0.4,0.1c0.1,0,0.1,0,0.2,0c0.1,0,0.2,0,0.3,0c0.3,0,0.4,0.1,0.5,0.2
				s0.2,0.3,0.3,0.4c0.2,0.4,0.4,0.7,0.8,1c0.3,0.3,0.8,0.4,1.3,0.4c0.2,0,0.4,0,0.6-0.1c1.4-0.4,2.7-0.9,4-1.6h0.4
				c0.1,0,0.2,0,0.3,0c0.4,0,0.9-0.1,1.2-0.4c0.4-0.6,0.8-1.2,1.1-1.8c0.3-0.6,0.3-1.1,0-1.6c-0.8-1.3-1-1.7-1.3-2.5l0,0l0,0
				c-0.1,0-0.2-0.1-0.3-0.1c-0.2-0.1-0.4-0.2-0.7-0.2l0,0c-0.3,0-0.5,0.1-0.5,0.3l0,0l1.5,2.9c0.1,0.2,0.2,0.5,0.1,0.8
				c-0.1,0.3-0.8,1.5-1,1.6c-0.1,0-0.1,0.1-0.1,0.1s-0.1,0,0-0.2c0.1-0.5,0.3-1.6,0.3-2c-0.1-0.4-1.3-2.5-1.4-2.6l0,0
				c-0.2-0.3-0.4-0.6-0.4-1c0-0.2,0.2-0.3,0.3-0.3c0.2-0.1,0.4-0.1,0.6-0.2c0.5-0.1,1.1-0.2,1.3-0.5c0.6-0.9,1-1.8,1.2-3.2
				c0-0.1,0.1-0.2,0.1-0.2s0.1,0,0.1,0.1c0.2,1.2-0.1,2.5-0.8,3.6c0,0.1-0.1,0.2-0.1,0.3c0,0.1,0.1,0.2,0.1,0.2
				c0.3,0.2,1.3,0.1,2.1-0.3c0.6,0,1.1-0.1,1.6-0.2c0.2,0,0.3-0.1,0.5-0.1c0.1,0,0.1,0.1,0.1,0.1c-0.4,0.5-0.7,1.1-0.9,1.8
				c-0.1,0.1-0.3,0.3-0.4,0.4c-0.5,0.4-1,0.9-1,1.6c0,0,0,0.2,0.2,0.2c0.1,0,0.2,0,0.2-0.1c0.1,0,0.2-0.1,0.3-0.1s0.1,0.1,0.1,0.2
				l-0.6,0.8c-0.2,0.3-0.1,0.7,0,1c0.1,0.2,0,0.3,0.1,0.5c0.1,0.4,0.6,0.6,1,0.6c0.7,0,1.4-0.3,2-0.5c0.1,0,0.2-0.1,0.3-0.1
				c0.7-0.3,1.6-0.4,2.7-0.2c0.9-0.1,1.6-0.6,2.2-1.2c0.3,0,0.6,0.2,0.9,0.5c1,1,2.1,1.5,3.6,1.5c0.1,0,0.1,0,0.2,0h0.1
				c0.2,0,0.2-0.1,0.2-0.2s-0.1-0.2-0.2-0.3l-0.8-0.4c-0.7-0.4-1.4-0.9-1.6-1.6c-0.2-0.7-0.6-1.4-0.9-1.9c-0.1-0.1-0.1-0.2-0.2-0.3
				c-0.1-0.2-0.2-0.3-0.3-0.5l0,0c0.9,0.3,1.4,1,2,2.1c0.4,0.8,1.6,1.7,2.7,1.7C214.5,84.3,214.7,84.3,214.9,84.3
				c0,0,0.1-0.1,0.1-0.2C214.9,84.4,214.9,84.3,214.9,84.3z M198.9,71.1c0,0.1-0.1,0.1-0.1,0.1s-0.1,0-0.1-0.1
				c-0.2-1.2-0.4-1.8-0.6-2.3c-0.1-0.2-0.2-0.3-0.3-0.5c-0.2-0.3-0.4-0.5-0.2-0.8c0.1-0.1,0.2-0.2,0.4-0.2c0.1,0,0.1,0,0.2,0
				c0.2,0.1,0.5,0.4,0.7,0.8C199.4,69.4,198.9,71.1,198.9,71.1z M206.4,82.9c0,0,0,0.3-0.2,0.5c-0.2,0.1-0.7,0.2-1,0.2
				s-0.4-0.1-0.5-0.1c-0.1-0.1,0-0.3,0-0.3c0-0.1,0.4-0.8,1.1-1c0,0,0.2-0.1,0.4,0C206.4,82.3,206.4,82.8,206.4,82.9z M208.4,78.2
				c0,0.3-0.1,0.4-0.1,0.5s-0.1,0.2-0.3,0.2s-0.2-0.3-0.2-0.3s0-0.7-0.2-1s-0.9-1.3-1.3-1.2c-0.1,0-0.4,0.2-0.6,0.4
				c-0.2,0.3-0.2,0.4-0.3,0.4s-0.2,0-0.2-0.2s-0.1-0.3,0-0.7c0.1-0.4,0.2-0.4,0.3-0.7c0,0,0.2-0.5,0.3-0.6c0.2-0.3,0.5-0.3,0.5-0.3
				c0.1,0,0.3,0,0.6,0.3c0.3,0.4,0.3,0.4,0.3,0.5c0.1,0.1,0.2,0.3,0.5,0.6c0.3,0.3,0.6,0.9,0.6,1.2
				C208.4,77.6,208.4,77.9,208.4,78.2z M190.9,84.2c0.1,0.2,0.2,0.4,0.3,0.6c0.2,0.4,0.3,0.7,0.5,0.7c0.1,0,0.1,0,0.2,0
				c0.4,0,0.9-0.2,1.3-0.5c0.2-0.2,0.1-0.3,0.1-0.5c0-0.1-0.1-0.1-0.1-0.2c-0.1-0.2-0.2-0.4-0.2-0.6c-0.1-0.4-0.2-0.7-0.6-0.6
				c-0.6,0.1-1.1,0.1-1.7,0.1c0,0-0.2,0-0.3,0.1c-0.1,0.2,0.1,0.3,0.3,0.5C190.8,84,190.9,84.1,190.9,84.2z"/>
			<path class="st5" d="M270.6,88.2c-0.1-0.1-0.1-0.3-0.1-0.4c0-0.2-0.1-0.3-0.1-0.5c0-0.3-0.1-0.5-0.2-0.7s-0.4-0.4-0.7-0.4
				c-0.1,0-0.2,0-0.3,0.1c-0.4,0.2-0.7,0.4-0.6,0.9c0.2,0.7,0.3,1.2,0.5,1.8c0,0.1,0.1,0.4,0.2,0.4l0,0l1.2-0.4
				c0.1,0,0.1-0.1,0.1-0.1C270.9,88.7,270.8,88.5,270.6,88.2z M268.9,85.3c-0.2-0.3-0.7-0.6-1-0.8c-0.2-0.1-0.3-0.2-0.4-0.3h-0.1
				c-0.1-0.1-0.2-0.1-0.3-0.1c-0.4,0-0.8,0.5-0.8,0.6c0,0.2,0.3,0.6,0.7,1.1l0.1,0.1c0.2,0.3,0.4,0.4,0.7,0.4l0,0
				c0.2,0,0.4-0.1,0.7-0.3C268.6,85.8,269,85.5,268.9,85.3z M240.9,83.5c-0.2,0-0.4,0-0.7,0c-0.1,0-0.2,0-0.3,0c-0.1,0-0.2,0-0.3,0
				c-0.1,0-0.2,0-0.4,0l0,0l0,0c0,0-0.4,0.8-0.4,1.2c0.1,0.5,0.6,0.6,1,0.7c0.1,0,0.3,0.1,0.5,0.1c0.3,0,0.5-0.1,0.6-0.3
				c0.2-0.6,0.4-1.1,0.4-1.5c0-0.1,0-0.1,0-0.1C241.1,83.5,241,83.5,240.9,83.5L240.9,83.5z M267.9,87L267.9,87L267.9,87
				c-0.7,0-1.2-0.5-1.6-1.1c-0.1-0.2-0.3-0.3-0.4-0.5c-0.2-0.2-0.5-0.5-0.7-0.6c-0.2-0.2-0.5-0.4-0.5-0.6c-0.1-0.2-0.2-0.6-0.3-1
				c-0.1-0.3-0.1-0.5-0.2-0.7v-0.1c-0.1-0.3-0.3-0.7-0.7-0.8c-0.2,0-0.5,0-0.7-0.1c-0.6,0-1.3-0.1-1.6-0.6c-0.3-0.4-0.2-0.8,0-1.2
				c0.1-0.2,0.1-0.3,0.2-0.5c0.2-0.8,0.3-1.7,0.1-2.3c0-0.1-0.1-0.2-0.1-0.3c-0.1-0.3-0.2-0.7-0.1-0.8c0.1-0.1,0.1-0.1,0.3-0.1
				c0.1,0,0.2,0,0.4,0.1c0.1,0,0.2,0,0.2,0.1c0.3,0.1,0.8,0.2,1.2,0.2c0.7,0,1.4-0.2,2.1-0.4c1.2-0.6,2.4-1.9,2.3-3.5
				c-0.2-1.6-1.2-3.2-3.1-4.9l-0.1-0.1c-0.3-0.2-0.6-0.5-0.6-0.7s0.6-0.4,1-0.5c0.1,0,0.2,0,0.2-0.1h0.1c0.5-0.1,1-0.3,1.4-0.5
				c1.4-0.9,1.3-2.6,1.2-3.5v-0.1c0-0.1-0.1-0.3-0.2-0.3h-0.1l-0.1,0.1c-0.2,0.2-0.3,0.3-0.5,0.4c-0.4,0.3-1,0.4-1.5,0.5
				c-0.3,0.1-0.7,0.1-1,0.2c-1.4,0.5-2.2,1.2-2.5,2.1c-0.2,0.5-0.1,1.1,0.2,1.6c0.5,0.7,1.1,1.3,1.7,1.9c1,1,2,1.9,2.3,3.3
				c0.1,0.8-0.2,1.4-1,2c-0.4,0.2-0.9,0.4-1.5,0.4c-0.7,0-1.5-0.2-2.1-0.5c-0.8-0.4-1.6-0.9-2.3-1.4c-1.1-0.8-2.3-1.5-3.6-2
				c-0.6-0.3-1.2-0.4-1.8-0.5c-0.9-0.2-1.7-0.4-2.5-0.9c-0.2-0.2-0.5-0.3-0.7-0.5c-0.6-0.5-1.3-1-2.1-1.1c-0.3-0.1-0.6-0.1-0.8-0.2
				c-0.4-0.1-0.8-0.1-1.2-0.4c-0.2-0.1-0.3-0.2-0.5-0.4c-0.6-0.4-1.2-0.9-1.8-1.2c-1.1-0.5-2.2-0.8-3.5-1.1
				c-0.4-0.1-0.7-0.4-0.9-0.7c-0.2-0.2-0.4-0.4-0.6-0.6c-1-0.8-1.9-1.3-3-1.3c-0.1,0-0.2,0-0.3,0c-0.6,0-1.2,0.5-1.6,0.8
				c-1.1,1-2.4,1.9-3.6,2.8c-1.8,1.3-3.6,2.6-5.2,4.3c-1.5,1.6-2.1,3.6-2.6,5.5c-0.1,0.3-0.2,0.6-0.2,0.9c-0.1,0.5-0.3,1.1-0.4,1.6
				c-0.7,2.8-1.4,5.7-4.3,7.5c-0.2,0.1-0.1,0.4,0.1,0.4c0.1,0,1.4,0.4,2.4-0.8c0.7-0.9,1.1-1.7,2-2.6c0,0,0.1-0.1,0.2-0.1
				c0.1,0,0.1,0.1,0.1,0.2c-0.1,0.4-0.3,0.7-0.6,1c-0.2,0.3-0.5,0.7-0.6,1c-0.3,0.8-1,1.5-1.7,2.1c0,0-0.1,0.1-0.2,0.1
				c-0.1,0.1-0.1,0.1-0.1,0.1c0,0.2,0.1,0.3,0.4,0.3l0,0c1.6,0,2.7-1.1,3.8-2.2c0,0,0.1-0.1,0.2-0.1c0.1,0,0.1,0,0.2,0
				c0.1,0,0.2,0.2,0.4,0.3c0.4,0.3,0.7,0.6,1.2,0.7l0,0l0,0c0.6-0.1,1.1-0.1,1.6-0.1c0.2,0,0.3,0,0.4,0c0.6,0.2,1.2,0.4,1.7,0.6
				c0.4,0.1,0.8,0.3,1.2,0.4l0,0l0,0c0.5,0,0.9-0.5,1.2-0.9c0.1-0.3,0.1-0.6,0-0.9c0-0.2-0.1-0.4-0.1-0.5c0.1-0.1,0.2,0,0.4,0
				c0.1,0,0.3,0,0.4,0s0.3-0.2,0.2-0.4c-0.1-0.5-0.4-0.9-0.6-1.3c-0.2-0.3-0.5-0.7-0.6-1c-0.2-0.5-0.5-0.9-0.9-1.3
				c-0.4-0.5-0.8-0.9-0.9-1.4c0,0,0-0.1,0-0.2s0.2,0,0.2,0c0.2,0.1,0.4,0.3,0.6,0.4c0.6,0.5,1.2,1,2,1.1c0.7,0.1,1.5,0.2,2.2,0.1
				c0.2,0,0.3-0.2,0.3-0.4c-0.3-0.6-0.6-1.3-0.8-2.1c-0.2-0.6-0.5-2-0.2-3.2c0-0.1,0.1-0.1,0.2-0.1l0,0c0.1,0,0.2,0.2,0.2,0.3v0.1
				c0.1,1.5,0.2,3,1.1,4.2c0.2,0.4,0.6,0.6,0.9,0.8c0.2,0.1,0.5,0.3,0.7,0.5s0.2,0.7,0.1,0.9l-1.1,1.7c-0.3,0.4-0.5,0.8-0.6,1.2
				c-0.1,0.4,0,0.8,0,1.2v0.1c0,0-0.1,0-0.1-0.1c-0.5-0.8-0.6-1.5-0.3-2.1c0.2-0.4,1.1-1.7,1.3-2.1c0.1-0.1,0.2-0.3,0.1-0.4
				s-0.8-0.4-1-0.4l0,0c-0.2,0-0.3,0.2-0.4,0.3c0,0,0,0.1-0.1,0.1l-1.4,2.5v0.1c-0.1,0.3-0.2,0.5-0.1,0.8c0.1,0.4,0.2,0.8,0.3,1.1
				c0,0.1,0,0.2,0.1,0.3c0.1,0.4,0.2,0.9,0.4,1.1c0.1,0.1,0.3,0.2,0.5,0.2c0.1,0,0.2,0,0.3,0c0.2,0,0.4,0,0.5,0
				c0.2,0.1,0.4,0.2,0.5,0.4c0.2,0.2,0.3,0.3,0.5,0.4c0.4,0.1,0.9,0.3,1.3,0.4c0.6,0.2,1.2,0.3,1.8,0.5c0.3,0.1,0.7,0.2,1,0.2
				c0.4,0,0.6-0.1,0.9-0.4c0.5-0.4,0.6-0.7,0.7-1.3c0.1-0.5,0.3-0.5,0.6-0.5c0.2,0,0.2,0,0.4-0.1c0.2-0.1,0.7-0.7,0.9-1.2
				c0.1-0.1,0.2-0.3,0.2-0.4c0.1-0.1,0.1-0.2,0.1-0.3c0-0.3-0.2-0.3-0.3-0.3h-0.1c0,0-1.5,0-1.9,0c-0.6,0-0.9,0.6-1.1,1.1
				c-0.1,0.2-0.2,0.4-0.3,0.6c-0.2,0.3-0.5,0.5-0.9,0.5c-0.1,0-0.4-0.1-0.5-0.1c-0.8-0.2-1.6-0.4-2-1.2c0-0.1-0.1-0.4,0.1-0.7
				c0.4-0.5,1-1.1,1.6-1.6c0.8-0.2,1.6-0.8,2.1-1.5c0.1-0.1,0.1-0.3,0.2-0.4c0.1-0.2,0.1-0.4,0.4-0.6c0.1-0.1,0.2,0,0.3,0.1
				c0.1,0.4-0.1,0.8-0.2,1.2c0,0.1-0.1,0.2-0.1,0.3v0.1h0.1c0.2,0,0.5,0,0.7,0c0.8,0,1.6-0.1,2.4-0.3c0.8-0.1,1.6-0.3,2.4-0.3
				c0.1,0,0.2,0,0.3,0c0.4,0,0.7,0,1.1,0.1c0.3,0,0.7,0.1,1,0.1c0.1,0,0.2,0,0.4,0c1,0,1.8-0.5,2-1.3c0.2-0.6,0.2-1.7-0.1-3.3
				c0-0.1,0-0.1,0-0.1l0,0c0-0.1,0-0.1,0.1-0.2s0.2,0,0.2,0.1c0.4,1.1,0.6,2.4,0.7,3.3s0.5,1.7,1.1,2.6c0.7,1.1,2,1.8,3.4,1.8
				c0.3,0,0.7-0.1,1-0.1c0.2,0,0.3,0,0.5,0c1.8,0,3.3,0.8,4.5,2.2c0,0,0,0,0,0.1s-0.1,0.1-0.2,0.1l-0.2-0.1c-1-0.8-2-1.6-3.3-1.7
				c-0.2,0-0.5-0.1-0.7-0.1c-0.4,0-0.7,0-1.1,0.1c-0.4,0-0.7,0.1-1,0.1c-0.4,0-0.8-0.1-1.2-0.2c-1.5-0.5-2.7-2.2-3.1-3.3
				c0,0-0.1-0.1-0.2-0.1h-0.1c-0.2,0.1-0.2,0.2-0.2,0.3c0,0.1,0.1,0.9,0.2,1.2c0.2,0.8,0.3,1.8,1.5,2.6c0.8,0.5,1,0.7,1.9,0.9
				c0.1,0,0.5,0,0.7,0c0.4-0.1,0.8-0.1,1.2-0.1c1.2,0,2.5,0.4,3.5,1.2c0.2,0.1,0.3,0.2,0.5,0.4c0.2,0.2,0.5,0.4,0.7,0.5
				s0.4,0.1,0.6,0.1c0.5,0,0.6-0.1,0.9-0.3c0.1-0.1,0.3-0.1,0.4-0.1c0.4,0,0.6,0.3,0.9,0.7c0.2,0.2,0.3,0.5,0.6,0.7
				c0.3,0.3,0.8,0.4,1.2,0.4c0.2,0,0.4,0,0.6,0s0.4,0,0.6,0c0.1,0,0.2,0,0.2,0l0,0C268.5,88.4,268.2,87.8,267.9,87z M228,83.5
				c-0.1,0.1-0.2,0.2-0.5,0.2c-0.2,0-0.4-0.1-0.5-0.1c-0.3-0.2-0.4-0.5-0.5-1c0-0.1,0-0.2,0.1-0.3c0.1,0,0.1,0,0.2,0
				c0.3,0,0.7,0.2,0.9,0.5C227.9,82.7,228.2,83.1,228,83.5z M228.5,77.2c-0.1,0.1-0.3,0.2-0.4,0.2c-0.1-0.1-0.3-0.2-0.3-0.4
				c-0.1-0.2-0.2-0.3-0.4-0.3l0,0c-0.2,0-0.4,0.1-0.5,0.2s-0.4,0.3-0.5,0.4c-0.4,0.4-0.9,0.8-1,1.3c0,0.2,0,0.2-0.1,0.3
				c0,0.2-0.1,0.4-0.2,0.5l0,0c0,0,0,0-0.1,0s-0.1,0-0.2-0.1c-0.1,0-0.1-0.1-0.1-0.2c-0.1-0.9,0.2-1.7,0.9-2.3
				c0.4-0.3,0.7-0.8,1.1-1.2c0.2-0.2,0.3-0.4,0.5-0.6c0.1-0.1,0.3,0,0.7,0.4c0.1,0.2,0.6,0.9,0.8,1.4
				C228.5,77,228.5,77.2,228.5,77.2z M236,66.7c-0.2,0.2-0.3,0.3-0.5,0.5c-0.6,0.6-1.3,1.2-1.7,1.9c-0.2,0.3-0.4,0.6-0.5,0.9
				l-0.1,0.1H233c-0.1-0.1,0-1,0.1-1.4c0.3-0.9,1.1-1.9,2.2-2.7c0.1-0.1,0.3-0.1,0.4-0.1c0.2,0,0.3,0.1,0.4,0.2
				C236.1,66.2,236.1,66.5,236,66.7z"/>
		</g>
	</g>
</g>
</svg>
